<?xml version="1.0" encoding="us-ascii" standalone="no"?><svg xmlns="http://www.w3.org/2000/svg" xmlns:xlink="http://www.w3.org/1999/xlink" contentStyleType="text/css" height="547px" preserveAspectRatio="none" style="width:741px;height:547px;background:#FFFFFF;" version="1.1" viewBox="0 0 741 547" width="741px" zoomAndPan="magnify"><defs/><g><text fill="#000000" font-family="sans-serif" font-size="14" font-weight="bold" lengthAdjust="spacing" textLength="262" x="232.75" y="24.5332">Diagramme de classes - Syst&#232;me CFC</text><!--class Utilisateur--><g id="elem_Utilisateur"><rect codeLine="3" fill="#F1F1F1" height="118.4375" id="Utilisateur" rx="2.5" ry="2.5" style="stroke:#181818;stroke-width:0.5;" width="151" x="150" y="45.6094"/><ellipse cx="190.65" cy="61.6094" fill="#ADD1B2" rx="11" ry="11" style="stroke:#181818;stroke-width:1.0;"/><path d="M193.4156,57.4844 Q193.5719,57.2656 193.7594,57.1563 Q193.9469,57.0469 194.1656,57.0469 Q194.5406,57.0469 194.775,57.3125 Q195.0094,57.5625 195.0094,58.1719 L195.0094,59.625 Q195.0094,60.2344 194.775,60.5 Q194.5406,60.7656 194.1656,60.7656 Q193.8219,60.7656 193.6188,60.5625 Q193.4156,60.375 193.3063,59.8594 Q193.2594,59.5 193.0719,59.3125 Q192.7438,58.9375 192.1344,58.7188 Q191.525,58.5 190.9,58.5 Q190.1344,58.5 189.4938,58.8281 Q188.8688,59.1563 188.3688,59.9063 Q187.8844,60.6563 187.8844,61.6875 L187.8844,62.7813 Q187.8844,64.0156 188.775,64.8438 Q189.6656,65.6563 191.2594,65.6563 Q192.1969,65.6563 192.8531,65.4063 Q193.2438,65.25 193.6656,64.8125 Q193.9313,64.5469 194.0719,64.4688 Q194.2281,64.3906 194.4313,64.3906 Q194.7594,64.3906 195.0094,64.6563 Q195.275,64.9063 195.275,65.25 Q195.275,65.5938 194.9313,66 Q194.4313,66.5781 193.6344,66.9063 Q192.5563,67.3594 191.2594,67.3594 Q189.7438,67.3594 188.5406,66.7344 Q187.5563,66.2344 186.8688,65.1719 Q186.1813,64.0938 186.1813,62.8125 L186.1813,61.6563 Q186.1813,60.3281 186.7906,59.1875 Q187.4156,58.0313 188.5094,57.4219 Q189.6031,56.7969 190.8375,56.7969 Q191.5719,56.7969 192.2125,56.9688 Q192.8688,57.125 193.4156,57.4844 Z " fill="#000000"/><text fill="#000000" font-family="sans-serif" font-size="14" lengthAdjust="spacing" textLength="62" x="210.35" y="67.3379">Utilisateur</text><line style="stroke:#181818;stroke-width:0.5;" x1="151" x2="300" y1="77.6094" y2="77.6094"/><ellipse cx="161" cy="91.9141" fill="none" rx="3" ry="3" style="stroke:#038048;stroke-width:1.0;"/><text fill="#000000" font-family="sans-serif" font-size="14" lengthAdjust="spacing" textLength="34" x="170" y="96.1426">id: int</text><ellipse cx="161" cy="109.5234" fill="none" rx="3" ry="3" style="stroke:#038048;stroke-width:1.0;"/><text fill="#000000" font-family="sans-serif" font-size="14" lengthAdjust="spacing" textLength="72" x="170" y="113.752">nom: String</text><ellipse cx="161" cy="127.1328" fill="none" rx="3" ry="3" style="stroke:#038048;stroke-width:1.0;"/><text fill="#000000" font-family="sans-serif" font-size="14" lengthAdjust="spacing" textLength="78" x="170" y="131.3613">email: String</text><ellipse cx="161" cy="144.7422" fill="none" rx="3" ry="3" style="stroke:#038048;stroke-width:1.0;"/><text fill="#000000" font-family="sans-serif" font-size="14" lengthAdjust="spacing" textLength="125" x="170" y="148.9707">motDePasse: String</text><line style="stroke:#181818;stroke-width:0.5;" x1="151" x2="300" y1="156.0469" y2="156.0469"/></g><!--class SuperAdmin--><g id="elem_SuperAdmin"><rect codeLine="10" fill="#F1F1F1" height="48" id="SuperAdmin" rx="2.5" ry="2.5" style="stroke:#181818;stroke-width:0.5;" width="109" x="7" y="223.6094"/><ellipse cx="22" cy="239.6094" fill="#ADD1B2" rx="11" ry="11" style="stroke:#181818;stroke-width:1.0;"/><path d="M24.7656,235.4844 Q24.9219,235.2656 25.1094,235.1563 Q25.2969,235.0469 25.5156,235.0469 Q25.8906,235.0469 26.125,235.3125 Q26.3594,235.5625 26.3594,236.1719 L26.3594,237.625 Q26.3594,238.2344 26.125,238.5 Q25.8906,238.7656 25.5156,238.7656 Q25.1719,238.7656 24.9688,238.5625 Q24.7656,238.375 24.6563,237.8594 Q24.6094,237.5 24.4219,237.3125 Q24.0938,236.9375 23.4844,236.7188 Q22.875,236.5 22.25,236.5 Q21.4844,236.5 20.8438,236.8281 Q20.2188,237.1563 19.7188,237.9063 Q19.2344,238.6563 19.2344,239.6875 L19.2344,240.7813 Q19.2344,242.0156 20.125,242.8438 Q21.0156,243.6563 22.6094,243.6563 Q23.5469,243.6563 24.2031,243.4063 Q24.5938,243.25 25.0156,242.8125 Q25.2813,242.5469 25.4219,242.4688 Q25.5781,242.3906 25.7813,242.3906 Q26.1094,242.3906 26.3594,242.6563 Q26.625,242.9063 26.625,243.25 Q26.625,243.5938 26.2813,244 Q25.7813,244.5781 24.9844,244.9063 Q23.9063,245.3594 22.6094,245.3594 Q21.0938,245.3594 19.8906,244.7344 Q18.9063,244.2344 18.2188,243.1719 Q17.5313,242.0938 17.5313,240.8125 L17.5313,239.6563 Q17.5313,238.3281 18.1406,237.1875 Q18.7656,236.0313 19.8594,235.4219 Q20.9531,234.7969 22.1875,234.7969 Q22.9219,234.7969 23.5625,234.9688 Q24.2188,235.125 24.7656,235.4844 Z " fill="#000000"/><text fill="#000000" font-family="sans-serif" font-size="14" lengthAdjust="spacing" textLength="77" x="36" y="245.3379">SuperAdmin</text><line style="stroke:#181818;stroke-width:0.5;" x1="8" x2="115" y1="255.6094" y2="255.6094"/><line style="stroke:#181818;stroke-width:0.5;" x1="8" x2="115" y1="263.6094" y2="263.6094"/></g><!--class AdminEtablissement--><g id="elem_AdminEtablissement"><rect codeLine="11" fill="#F1F1F1" height="48" id="AdminEtablissement" rx="2.5" ry="2.5" style="stroke:#181818;stroke-width:0.5;" width="159" x="147" y="492.6094"/><ellipse cx="162" cy="508.6094" fill="#ADD1B2" rx="11" ry="11" style="stroke:#181818;stroke-width:1.0;"/><path d="M164.7656,504.4844 Q164.9219,504.2656 165.1094,504.1563 Q165.2969,504.0469 165.5156,504.0469 Q165.8906,504.0469 166.125,504.3125 Q166.3594,504.5625 166.3594,505.1719 L166.3594,506.625 Q166.3594,507.2344 166.125,507.5 Q165.8906,507.7656 165.5156,507.7656 Q165.1719,507.7656 164.9688,507.5625 Q164.7656,507.375 164.6563,506.8594 Q164.6094,506.5 164.4219,506.3125 Q164.0938,505.9375 163.4844,505.7188 Q162.875,505.5 162.25,505.5 Q161.4844,505.5 160.8438,505.8281 Q160.2188,506.1563 159.7188,506.9063 Q159.2344,507.6563 159.2344,508.6875 L159.2344,509.7813 Q159.2344,511.0156 160.125,511.8438 Q161.0156,512.6563 162.6094,512.6563 Q163.5469,512.6563 164.2031,512.4063 Q164.5938,512.25 165.0156,511.8125 Q165.2813,511.5469 165.4219,511.4688 Q165.5781,511.3906 165.7813,511.3906 Q166.1094,511.3906 166.3594,511.6563 Q166.625,511.9063 166.625,512.25 Q166.625,512.5938 166.2813,513 Q165.7813,513.5781 164.9844,513.9063 Q163.9063,514.3594 162.6094,514.3594 Q161.0938,514.3594 159.8906,513.7344 Q158.9063,513.2344 158.2188,512.1719 Q157.5313,511.0938 157.5313,509.8125 L157.5313,508.6563 Q157.5313,507.3281 158.1406,506.1875 Q158.7656,505.0313 159.8594,504.4219 Q160.9531,503.7969 162.1875,503.7969 Q162.9219,503.7969 163.5625,503.9688 Q164.2188,504.125 164.7656,504.4844 Z " fill="#000000"/><text fill="#000000" font-family="sans-serif" font-size="14" lengthAdjust="spacing" textLength="127" x="176" y="514.3379">AdminEtablissement</text><line style="stroke:#181818;stroke-width:0.5;" x1="148" x2="305" y1="524.6094" y2="524.6094"/><line style="stroke:#181818;stroke-width:0.5;" x1="148" x2="305" y1="532.6094" y2="532.6094"/></g><!--class Coordinateur--><g id="elem_Coordinateur"><rect codeLine="12" fill="#F1F1F1" height="48" id="Coordinateur" rx="2.5" ry="2.5" style="stroke:#181818;stroke-width:0.5;" width="115" x="225" y="223.6094"/><ellipse cx="240" cy="239.6094" fill="#ADD1B2" rx="11" ry="11" style="stroke:#181818;stroke-width:1.0;"/><path d="M242.7656,235.4844 Q242.9219,235.2656 243.1094,235.1563 Q243.2969,235.0469 243.5156,235.0469 Q243.8906,235.0469 244.125,235.3125 Q244.3594,235.5625 244.3594,236.1719 L244.3594,237.625 Q244.3594,238.2344 244.125,238.5 Q243.8906,238.7656 243.5156,238.7656 Q243.1719,238.7656 242.9688,238.5625 Q242.7656,238.375 242.6563,237.8594 Q242.6094,237.5 242.4219,237.3125 Q242.0938,236.9375 241.4844,236.7188 Q240.875,236.5 240.25,236.5 Q239.4844,236.5 238.8438,236.8281 Q238.2188,237.1563 237.7188,237.9063 Q237.2344,238.6563 237.2344,239.6875 L237.2344,240.7813 Q237.2344,242.0156 238.125,242.8438 Q239.0156,243.6563 240.6094,243.6563 Q241.5469,243.6563 242.2031,243.4063 Q242.5938,243.25 243.0156,242.8125 Q243.2813,242.5469 243.4219,242.4688 Q243.5781,242.3906 243.7813,242.3906 Q244.1094,242.3906 244.3594,242.6563 Q244.625,242.9063 244.625,243.25 Q244.625,243.5938 244.2813,244 Q243.7813,244.5781 242.9844,244.9063 Q241.9063,245.3594 240.6094,245.3594 Q239.0938,245.3594 237.8906,244.7344 Q236.9063,244.2344 236.2188,243.1719 Q235.5313,242.0938 235.5313,240.8125 L235.5313,239.6563 Q235.5313,238.3281 236.1406,237.1875 Q236.7656,236.0313 237.8594,235.4219 Q238.9531,234.7969 240.1875,234.7969 Q240.9219,234.7969 241.5625,234.9688 Q242.2188,235.125 242.7656,235.4844 Z " fill="#000000"/><text fill="#000000" font-family="sans-serif" font-size="14" lengthAdjust="spacing" textLength="83" x="254" y="245.3379">Coordinateur</text><line style="stroke:#181818;stroke-width:0.5;" x1="226" x2="339" y1="255.6094" y2="255.6094"/><line style="stroke:#181818;stroke-width:0.5;" x1="226" x2="339" y1="263.6094" y2="263.6094"/></g><!--class Candidat--><g id="elem_Candidat"><rect codeLine="13" fill="#F1F1F1" height="48" id="Candidat" rx="2.5" ry="2.5" style="stroke:#181818;stroke-width:0.5;" width="89" x="417" y="223.6094"/><ellipse cx="432" cy="239.6094" fill="#ADD1B2" rx="11" ry="11" style="stroke:#181818;stroke-width:1.0;"/><path d="M434.7656,235.4844 Q434.9219,235.2656 435.1094,235.1563 Q435.2969,235.0469 435.5156,235.0469 Q435.8906,235.0469 436.125,235.3125 Q436.3594,235.5625 436.3594,236.1719 L436.3594,237.625 Q436.3594,238.2344 436.125,238.5 Q435.8906,238.7656 435.5156,238.7656 Q435.1719,238.7656 434.9688,238.5625 Q434.7656,238.375 434.6563,237.8594 Q434.6094,237.5 434.4219,237.3125 Q434.0938,236.9375 433.4844,236.7188 Q432.875,236.5 432.25,236.5 Q431.4844,236.5 430.8438,236.8281 Q430.2188,237.1563 429.7188,237.9063 Q429.2344,238.6563 429.2344,239.6875 L429.2344,240.7813 Q429.2344,242.0156 430.125,242.8438 Q431.0156,243.6563 432.6094,243.6563 Q433.5469,243.6563 434.2031,243.4063 Q434.5938,243.25 435.0156,242.8125 Q435.2813,242.5469 435.4219,242.4688 Q435.5781,242.3906 435.7813,242.3906 Q436.1094,242.3906 436.3594,242.6563 Q436.625,242.9063 436.625,243.25 Q436.625,243.5938 436.2813,244 Q435.7813,244.5781 434.9844,244.9063 Q433.9063,245.3594 432.6094,245.3594 Q431.0938,245.3594 429.8906,244.7344 Q428.9063,244.2344 428.2188,243.1719 Q427.5313,242.0938 427.5313,240.8125 L427.5313,239.6563 Q427.5313,238.3281 428.1406,237.1875 Q428.7656,236.0313 429.8594,235.4219 Q430.9531,234.7969 432.1875,234.7969 Q432.9219,234.7969 433.5625,234.9688 Q434.2188,235.125 434.7656,235.4844 Z " fill="#000000"/><text fill="#000000" font-family="sans-serif" font-size="14" lengthAdjust="spacing" textLength="57" x="446" y="245.3379">Candidat</text><line style="stroke:#181818;stroke-width:0.5;" x1="418" x2="505" y1="255.6094" y2="255.6094"/><line style="stroke:#181818;stroke-width:0.5;" x1="418" x2="505" y1="263.6094" y2="263.6094"/></g><!--class Etablissement--><g id="elem_Etablissement"><rect codeLine="20" fill="#F1F1F1" height="100.8281" id="Etablissement" rx="2.5" ry="2.5" style="stroke:#181818;stroke-width:0.5;" width="122" x="222.5" y="331.6094"/><ellipse cx="238.4" cy="347.6094" fill="#ADD1B2" rx="11" ry="11" style="stroke:#181818;stroke-width:1.0;"/><path d="M241.1656,343.4844 Q241.3219,343.2656 241.5094,343.1563 Q241.6969,343.0469 241.9156,343.0469 Q242.2906,343.0469 242.525,343.3125 Q242.7594,343.5625 242.7594,344.1719 L242.7594,345.625 Q242.7594,346.2344 242.525,346.5 Q242.2906,346.7656 241.9156,346.7656 Q241.5719,346.7656 241.3688,346.5625 Q241.1656,346.375 241.0563,345.8594 Q241.0094,345.5 240.8219,345.3125 Q240.4938,344.9375 239.8844,344.7188 Q239.275,344.5 238.65,344.5 Q237.8844,344.5 237.2438,344.8281 Q236.6188,345.1563 236.1188,345.9063 Q235.6344,346.6563 235.6344,347.6875 L235.6344,348.7813 Q235.6344,350.0156 236.525,350.8438 Q237.4156,351.6563 239.0094,351.6563 Q239.9469,351.6563 240.6031,351.4063 Q240.9938,351.25 241.4156,350.8125 Q241.6813,350.5469 241.8219,350.4688 Q241.9781,350.3906 242.1813,350.3906 Q242.5094,350.3906 242.7594,350.6563 Q243.025,350.9063 243.025,351.25 Q243.025,351.5938 242.6813,352 Q242.1813,352.5781 241.3844,352.9063 Q240.3063,353.3594 239.0094,353.3594 Q237.4938,353.3594 236.2906,352.7344 Q235.3063,352.2344 234.6188,351.1719 Q233.9313,350.0938 233.9313,348.8125 L233.9313,347.6563 Q233.9313,346.3281 234.5406,345.1875 Q235.1656,344.0313 236.2594,343.4219 Q237.3531,342.7969 238.5875,342.7969 Q239.3219,342.7969 239.9625,342.9688 Q240.6188,343.125 241.1656,343.4844 Z " fill="#000000"/><text fill="#000000" font-family="sans-serif" font-size="14" lengthAdjust="spacing" textLength="88" x="252.6" y="353.3379">Etablissement</text><line style="stroke:#181818;stroke-width:0.5;" x1="223.5" x2="343.5" y1="363.6094" y2="363.6094"/><ellipse cx="233.5" cy="377.9141" fill="none" rx="3" ry="3" style="stroke:#038048;stroke-width:1.0;"/><text fill="#000000" font-family="sans-serif" font-size="14" lengthAdjust="spacing" textLength="34" x="242.5" y="382.1426">id: int</text><ellipse cx="233.5" cy="395.5234" fill="none" rx="3" ry="3" style="stroke:#038048;stroke-width:1.0;"/><text fill="#000000" font-family="sans-serif" font-size="14" lengthAdjust="spacing" textLength="72" x="242.5" y="399.752">nom: String</text><ellipse cx="233.5" cy="413.1328" fill="none" rx="3" ry="3" style="stroke:#038048;stroke-width:1.0;"/><text fill="#000000" font-family="sans-serif" font-size="14" lengthAdjust="spacing" textLength="96" x="242.5" y="417.3613">adresse: String</text><line style="stroke:#181818;stroke-width:0.5;" x1="223.5" x2="343.5" y1="424.4375" y2="424.4375"/></g><!--class Dossier--><g id="elem_Dossier"><rect codeLine="26" fill="#F1F1F1" height="100.8281" id="Dossier" rx="2.5" ry="2.5" style="stroke:#181818;stroke-width:0.5;" width="164" x="379.5" y="331.6094"/><ellipse cx="433.25" cy="347.6094" fill="#ADD1B2" rx="11" ry="11" style="stroke:#181818;stroke-width:1.0;"/><path d="M436.0156,343.4844 Q436.1719,343.2656 436.3594,343.1563 Q436.5469,343.0469 436.7656,343.0469 Q437.1406,343.0469 437.375,343.3125 Q437.6094,343.5625 437.6094,344.1719 L437.6094,345.625 Q437.6094,346.2344 437.375,346.5 Q437.1406,346.7656 436.7656,346.7656 Q436.4219,346.7656 436.2188,346.5625 Q436.0156,346.375 435.9063,345.8594 Q435.8594,345.5 435.6719,345.3125 Q435.3438,344.9375 434.7344,344.7188 Q434.125,344.5 433.5,344.5 Q432.7344,344.5 432.0938,344.8281 Q431.4688,345.1563 430.9688,345.9063 Q430.4844,346.6563 430.4844,347.6875 L430.4844,348.7813 Q430.4844,350.0156 431.375,350.8438 Q432.2656,351.6563 433.8594,351.6563 Q434.7969,351.6563 435.4531,351.4063 Q435.8438,351.25 436.2656,350.8125 Q436.5313,350.5469 436.6719,350.4688 Q436.8281,350.3906 437.0313,350.3906 Q437.3594,350.3906 437.6094,350.6563 Q437.875,350.9063 437.875,351.25 Q437.875,351.5938 437.5313,352 Q437.0313,352.5781 436.2344,352.9063 Q435.1563,353.3594 433.8594,353.3594 Q432.3438,353.3594 431.1406,352.7344 Q430.1563,352.2344 429.4688,351.1719 Q428.7813,350.0938 428.7813,348.8125 L428.7813,347.6563 Q428.7813,346.3281 429.3906,345.1875 Q430.0156,344.0313 431.1094,343.4219 Q432.2031,342.7969 433.4375,342.7969 Q434.1719,342.7969 434.8125,342.9688 Q435.4688,343.125 436.0156,343.4844 Z " fill="#000000"/><text fill="#000000" font-family="sans-serif" font-size="14" lengthAdjust="spacing" textLength="48" x="453.75" y="353.3379">Dossier</text><line style="stroke:#181818;stroke-width:0.5;" x1="380.5" x2="542.5" y1="363.6094" y2="363.6094"/><ellipse cx="390.5" cy="377.9141" fill="none" rx="3" ry="3" style="stroke:#038048;stroke-width:1.0;"/><text fill="#000000" font-family="sans-serif" font-size="14" lengthAdjust="spacing" textLength="34" x="399.5" y="382.1426">id: int</text><ellipse cx="390.5" cy="395.5234" fill="none" rx="3" ry="3" style="stroke:#038048;stroke-width:1.0;"/><text fill="#000000" font-family="sans-serif" font-size="14" lengthAdjust="spacing" textLength="138" x="399.5" y="399.752">dateSoumission: Date</text><ellipse cx="390.5" cy="413.1328" fill="none" rx="3" ry="3" style="stroke:#038048;stroke-width:1.0;"/><text fill="#000000" font-family="sans-serif" font-size="14" lengthAdjust="spacing" textLength="80" x="399.5" y="417.3613">statut: String</text><line style="stroke:#181818;stroke-width:0.5;" x1="380.5" x2="542.5" y1="424.4375" y2="424.4375"/></g><!--class Inscription--><g id="elem_Inscription"><rect codeLine="32" fill="#F1F1F1" height="100.8281" id="Inscription" rx="2.5" ry="2.5" style="stroke:#181818;stroke-width:0.5;" width="156" x="578.5" y="331.6094"/><ellipse cx="620.5" cy="347.6094" fill="#ADD1B2" rx="11" ry="11" style="stroke:#181818;stroke-width:1.0;"/><path d="M623.2656,343.4844 Q623.4219,343.2656 623.6094,343.1563 Q623.7969,343.0469 624.0156,343.0469 Q624.3906,343.0469 624.625,343.3125 Q624.8594,343.5625 624.8594,344.1719 L624.8594,345.625 Q624.8594,346.2344 624.625,346.5 Q624.3906,346.7656 624.0156,346.7656 Q623.6719,346.7656 623.4688,346.5625 Q623.2656,346.375 623.1563,345.8594 Q623.1094,345.5 622.9219,345.3125 Q622.5938,344.9375 621.9844,344.7188 Q621.375,344.5 620.75,344.5 Q619.9844,344.5 619.3438,344.8281 Q618.7188,345.1563 618.2188,345.9063 Q617.7344,346.6563 617.7344,347.6875 L617.7344,348.7813 Q617.7344,350.0156 618.625,350.8438 Q619.5156,351.6563 621.1094,351.6563 Q622.0469,351.6563 622.7031,351.4063 Q623.0938,351.25 623.5156,350.8125 Q623.7813,350.5469 623.9219,350.4688 Q624.0781,350.3906 624.2813,350.3906 Q624.6094,350.3906 624.8594,350.6563 Q625.125,350.9063 625.125,351.25 Q625.125,351.5938 624.7813,352 Q624.2813,352.5781 623.4844,352.9063 Q622.4063,353.3594 621.1094,353.3594 Q619.5938,353.3594 618.3906,352.7344 Q617.4063,352.2344 616.7188,351.1719 Q616.0313,350.0938 616.0313,348.8125 L616.0313,347.6563 Q616.0313,346.3281 616.6406,345.1875 Q617.2656,344.0313 618.3594,343.4219 Q619.4531,342.7969 620.6875,342.7969 Q621.4219,342.7969 622.0625,342.9688 Q622.7188,343.125 623.2656,343.4844 Z " fill="#000000"/><text fill="#000000" font-family="sans-serif" font-size="14" lengthAdjust="spacing" textLength="64" x="640.5" y="353.3379">Inscription</text><line style="stroke:#181818;stroke-width:0.5;" x1="579.5" x2="733.5" y1="363.6094" y2="363.6094"/><ellipse cx="589.5" cy="377.9141" fill="none" rx="3" ry="3" style="stroke:#038048;stroke-width:1.0;"/><text fill="#000000" font-family="sans-serif" font-size="14" lengthAdjust="spacing" textLength="34" x="598.5" y="382.1426">id: int</text><ellipse cx="589.5" cy="395.5234" fill="none" rx="3" ry="3" style="stroke:#038048;stroke-width:1.0;"/><text fill="#000000" font-family="sans-serif" font-size="14" lengthAdjust="spacing" textLength="130" x="598.5" y="399.752">dateInscription: Date</text><ellipse cx="589.5" cy="413.1328" fill="none" rx="3" ry="3" style="stroke:#038048;stroke-width:1.0;"/><text fill="#000000" font-family="sans-serif" font-size="14" lengthAdjust="spacing" textLength="69" x="598.5" y="417.3613">etat: String</text><line style="stroke:#181818;stroke-width:0.5;" x1="579.5" x2="733.5" y1="424.4375" y2="424.4375"/></g><!--reverse link Utilisateur to SuperAdmin--><g id="link_Utilisateur_SuperAdmin"><path codeLine="15" d="M144.2024,175.5058 C119.8524,196.4458 107.4,207.1494 88.52,223.3794 " fill="none" id="Utilisateur-backto-SuperAdmin" style="stroke:#181818;stroke-width:1.0;"/><polygon fill="none" points="157.85,163.7694,140.2903,170.9566,148.1145,180.055,157.85,163.7694" style="stroke:#181818;stroke-width:1.0;"/></g><!--reverse link Utilisateur to AdminEtablissement--><g id="link_Utilisateur_AdminEtablissement"><path codeLine="16" d="M212.2265,181.5029 C201.9665,247.0529 192.3,338.9694 204.5,432.6094 C207.18,453.1594 213.43,475.8594 218.59,492.3194 " fill="none" id="Utilisateur-backto-AdminEtablissement" style="stroke:#181818;stroke-width:1.0;"/><polygon fill="none" points="215.01,163.7194,206.2987,180.575,218.1543,182.4307,215.01,163.7194" style="stroke:#181818;stroke-width:1.0;"/></g><!--reverse link Utilisateur to Coordinateur--><g id="link_Utilisateur_Coordinateur"><path codeLine="17" d="M255.7596,180.456 C264.2296,201.396 266.55,207.1494 273.11,223.3794 " fill="none" id="Utilisateur-backto-Coordinateur" style="stroke:#181818;stroke-width:1.0;"/><polygon fill="none" points="249.01,163.7694,250.1973,182.7059,261.3218,178.2061,249.01,163.7694" style="stroke:#181818;stroke-width:1.0;"/></g><!--reverse link Utilisateur to Candidat--><g id="link_Utilisateur_Candidat"><path codeLine="18" d="M316.603,160.04 C357.183,184.28 390.01,203.8994 422.92,223.5594 " fill="none" id="Utilisateur-backto-Candidat" style="stroke:#181818;stroke-width:1.0;"/><polygon fill="none" points="301.15,150.8094,313.5261,165.191,319.6799,154.889,301.15,150.8094" style="stroke:#181818;stroke-width:1.0;"/></g><!--link Etablissement to AdminEtablissement--><g id="link_Etablissement_AdminEtablissement"><path codeLine="38" d="M262.11,432.8294 C253.33,453.2394 243.59,475.8894 236.51,492.3294 " fill="none" id="Etablissement-AdminEtablissement" style="stroke:#181818;stroke-width:1.0;"/><text fill="#000000" font-family="sans-serif" font-size="13" lengthAdjust="spacing" textLength="7" x="251.921" y="453.8815">1</text><text fill="#000000" font-family="sans-serif" font-size="13" lengthAdjust="spacing" textLength="20" x="216.5126" y="481.5978">0..*</text></g><!--link Candidat to Dossier--><g id="link_Candidat_Dossier"><path codeLine="39" d="M461.5,271.6894 C461.5,288.1494 461.5,310.9094 461.5,331.4094 " fill="none" id="Candidat-Dossier" style="stroke:#181818;stroke-width:1.0;"/><text fill="#000000" font-family="sans-serif" font-size="13" lengthAdjust="spacing" textLength="7" x="453.6469" y="293.0468">1</text><text fill="#000000" font-family="sans-serif" font-size="13" lengthAdjust="spacing" textLength="20" x="440.0938" y="320.6866">0..*</text></g><!--link Candidat to Inscription--><g id="link_Candidat_Inscription"><path codeLine="40" d="M495.47,271.6894 C519.69,288.1494 553.18,310.9094 583.35,331.4094 " fill="none" id="Candidat-Inscription" style="stroke:#181818;stroke-width:1.0;"/><text fill="#000000" font-family="sans-serif" font-size="13" lengthAdjust="spacing" textLength="7" x="495.8971" y="293.0468">1</text><text fill="#000000" font-family="sans-serif" font-size="13" lengthAdjust="spacing" textLength="20" x="551.657" y="320.6866">0..*</text></g><!--link Coordinateur to Etablissement--><g id="link_Coordinateur_Etablissement"><path codeLine="41" d="M282.67,271.6894 C282.8,288.1494 282.97,310.9094 283.12,331.4094 " fill="none" id="Coordinateur-Etablissement" style="stroke:#181818;stroke-width:1.0;"/><text fill="#000000" font-family="sans-serif" font-size="13" lengthAdjust="spacing" textLength="7" x="274.8583" y="293.0468">1</text><text fill="#000000" font-family="sans-serif" font-size="13" lengthAdjust="spacing" textLength="7" x="275.5744" y="320.6866">1</text></g><!--SRC=[XL11JiGm3Bpd5LQFeAxWMd51BIjnGwfuWDbOAqjDiahS0mB-mp_u66vtMr9Qn2dEZ3Kp7c7f21h6OqJd22p1eSEKA449xMkIhqz5wtrjp8Z3it372ONw26y6u9fj1Unb67rm5RGIsH-7BpdaBWTSa8QU1lKP_PXqs_v4yTuwzXTWd1y4NzGkaIErE1Dr2D6o7oDC47hB5iMOFDxTUrdckYjkmsArit1RixFnESX2xBz-q4RQxA89AJ6j-rKZQaFlr823hw3H_u0dGUbbhVFeqo7oINHvKolZVyH8nNAfvKd5RG5wTt6psrqLMmLEZVpQl9pq5vqbCNdZyve-Ivzl]--></g></svg>