<?xml version="1.0" encoding="us-ascii" standalone="no"?><svg xmlns="http://www.w3.org/2000/svg" xmlns:xlink="http://www.w3.org/1999/xlink" contentStyleType="text/css" height="754px" preserveAspectRatio="none" style="width:743px;height:754px;background:#FFFFFF;" version="1.1" viewBox="0 0 743 754" width="743px" zoomAndPan="magnify"><defs/><g><text fill="#000000" font-family="sans-serif" font-size="14" font-weight="bold" lengthAdjust="spacing" textLength="339" x="200.5" y="34.5332">Diagramme d'activit&#233;s - Parcours Candidat (CFC)</text><ellipse cx="479.1875" cy="58.6094" fill="#222222" rx="10" ry="10" style="stroke:#222222;stroke-width:1.0;"/><rect fill="#F1F1F1" height="35.0938" rx="12.5" ry="12.5" style="stroke:#181818;stroke-width:0.5;" width="230" x="364.1875" y="88.6094"/><text fill="#000000" font-family="sans-serif" font-size="12" lengthAdjust="spacing" textLength="210" x="374.1875" y="111.0664">Consulter le catalogue des formations</text><polygon fill="#F1F1F1" points="432.6875,143.7031,525.6875,143.7031,537.6875,155.7031,525.6875,167.7031,432.6875,167.7031,420.6875,155.7031,432.6875,143.7031" style="stroke:#181818;stroke-width:0.5;"/><text fill="#000000" font-family="sans-serif" font-size="11" lengthAdjust="spacing" textLength="93" x="432.6875" y="160.2041">Formation publi&#233;e ?</text><text fill="#000000" font-family="sans-serif" font-size="11" lengthAdjust="spacing" textLength="16" x="404.6875" y="153.2861">Oui</text><text fill="#000000" font-family="sans-serif" font-size="11" lengthAdjust="spacing" textLength="19" x="537.6875" y="153.2861">Non</text><rect fill="#F1F1F1" height="35.0938" rx="12.5" ry="12.5" style="stroke:#181818;stroke-width:0.5;" width="199" x="207.375" y="177.7031"/><text fill="#000000" font-family="sans-serif" font-size="12" lengthAdjust="spacing" textLength="179" x="217.375" y="200.1602">Consulter d&#233;tails de la formation</text><polygon fill="#F1F1F1" points="234.375,232.7969,379.375,232.7969,391.375,244.7969,379.375,256.7969,234.375,256.7969,222.375,244.7969,234.375,232.7969" style="stroke:#181818;stroke-width:0.5;"/><text fill="#000000" font-family="sans-serif" font-size="11" lengthAdjust="spacing" textLength="145" x="234.375" y="249.2979">P&#233;riode d'inscription ouverte ?</text><text fill="#000000" font-family="sans-serif" font-size="11" lengthAdjust="spacing" textLength="16" x="206.375" y="242.3799">Oui</text><text fill="#000000" font-family="sans-serif" font-size="11" lengthAdjust="spacing" textLength="19" x="391.375" y="242.3799">Non</text><rect fill="#F1F1F1" height="35.0938" rx="12.5" ry="12.5" style="stroke:#181818;stroke-width:0.5;" width="97" x="121.75" y="266.7969"/><text fill="#000000" font-family="sans-serif" font-size="12" lengthAdjust="spacing" textLength="77" x="131.75" y="289.2539">Se pr&#233;inscrire</text><rect fill="#F1F1F1" height="35.0938" rx="12.5" ry="12.5" style="stroke:#181818;stroke-width:0.5;" width="194" x="73.25" y="321.8906"/><text fill="#000000" font-family="sans-serif" font-size="12" lengthAdjust="spacing" textLength="174" x="83.25" y="344.3477">Remplir et soumettre le dossier</text><rect fill="#F1F1F1" height="35.0938" rx="12.5" ry="12.5" style="stroke:#181818;stroke-width:0.5;" width="123" x="108.75" y="376.9844"/><text fill="#000000" font-family="sans-serif" font-size="12" lengthAdjust="spacing" textLength="103" x="118.75" y="399.4414">Dossier enregistr&#233;</text><rect fill="#F1F1F1" height="35.0938" rx="12.5" ry="12.5" style="stroke:#181818;stroke-width:0.5;" width="232" x="54.25" y="432.0781"/><text fill="#000000" font-family="sans-serif" font-size="12" lengthAdjust="spacing" textLength="212" x="64.25" y="454.5352">Attendre la d&#233;cision de l'administration</text><polygon fill="#F1F1F1" points="128.75,487.1719,211.75,487.1719,223.75,499.1719,211.75,511.1719,128.75,511.1719,116.75,499.1719,128.75,487.1719" style="stroke:#181818;stroke-width:0.5;"/><text fill="#000000" font-family="sans-serif" font-size="11" lengthAdjust="spacing" textLength="83" x="128.75" y="503.6729">D&#233;cision Admin ?</text><text fill="#000000" font-family="sans-serif" font-size="11" lengthAdjust="spacing" textLength="47" x="69.75" y="496.7549">Accept&#233;e</text><text fill="#000000" font-family="sans-serif" font-size="11" lengthAdjust="spacing" textLength="41" x="223.75" y="496.7549">Refus&#233;e</text><rect fill="#F1F1F1" height="35.0938" rx="12.5" ry="12.5" style="stroke:#181818;stroke-width:0.5;" width="156" x="11" y="521.1719"/><text fill="#000000" font-family="sans-serif" font-size="12" lengthAdjust="spacing" textLength="136" x="21" y="543.6289">Notification d'acceptation</text><rect fill="#F1F1F1" height="35.0938" rx="12.5" ry="12.5" style="stroke:#181818;stroke-width:0.5;" width="110" x="34" y="576.2656"/><text fill="#000000" font-family="sans-serif" font-size="12" lengthAdjust="spacing" textLength="90" x="44" y="598.7227">Inscription finale</text><rect fill="#F1F1F1" height="35.0938" rx="12.5" ry="12.5" style="stroke:#181818;stroke-width:0.5;" width="129" x="187" y="521.1719"/><text fill="#000000" font-family="sans-serif" font-size="12" lengthAdjust="spacing" textLength="109" x="197" y="543.6289">Notification de refus</text><polygon fill="#F1F1F1" points="170.25,617.3594,182.25,629.3594,170.25,641.3594,158.25,629.3594,170.25,617.3594" style="stroke:#181818;stroke-width:0.5;"/><rect fill="#F1F1F1" height="35.0938" rx="12.5" ry="12.5" style="stroke:#181818;stroke-width:0.5;" width="195" x="346" y="266.7969"/><text fill="#000000" font-family="sans-serif" font-size="12" lengthAdjust="spacing" textLength="175" x="356" y="289.2539">Message "Inscriptions ferm&#233;es"</text><polygon fill="#F1F1F1" points="306.875,647.3594,318.875,659.3594,306.875,671.3594,294.875,659.3594,306.875,647.3594" style="stroke:#181818;stroke-width:0.5;"/><rect fill="#F1F1F1" height="35.0938" rx="12.5" ry="12.5" style="stroke:#181818;stroke-width:0.5;" width="161" x="571" y="177.7031"/><text fill="#000000" font-family="sans-serif" font-size="12" lengthAdjust="spacing" textLength="141" x="581" y="200.1602">Formation non disponible</text><polygon fill="#F1F1F1" points="479.1875,677.3594,491.1875,689.3594,479.1875,701.3594,467.1875,689.3594,479.1875,677.3594" style="stroke:#181818;stroke-width:0.5;"/><ellipse cx="479.1875" cy="732.3594" fill="none" rx="11" ry="11" style="stroke:#222222;stroke-width:1.0;"/><ellipse cx="479.1875" cy="732.3594" fill="#222222" rx="6" ry="6" style="stroke:#222222;stroke-width:1.0;"/><line style="stroke:#181818;stroke-width:1.0;" x1="479.1875" x2="479.1875" y1="68.6094" y2="88.6094"/><polygon fill="#181818" points="475.1875,78.6094,479.1875,88.6094,483.1875,78.6094,479.1875,82.6094" style="stroke:#181818;stroke-width:1.0;"/><line style="stroke:#181818;stroke-width:1.0;" x1="170.25" x2="170.25" y1="301.8906" y2="321.8906"/><polygon fill="#181818" points="166.25,311.8906,170.25,321.8906,174.25,311.8906,170.25,315.8906" style="stroke:#181818;stroke-width:1.0;"/><line style="stroke:#181818;stroke-width:1.0;" x1="170.25" x2="170.25" y1="356.9844" y2="376.9844"/><polygon fill="#181818" points="166.25,366.9844,170.25,376.9844,174.25,366.9844,170.25,370.9844" style="stroke:#181818;stroke-width:1.0;"/><line style="stroke:#181818;stroke-width:1.0;" x1="170.25" x2="170.25" y1="412.0781" y2="432.0781"/><polygon fill="#181818" points="166.25,422.0781,170.25,432.0781,174.25,422.0781,170.25,426.0781" style="stroke:#181818;stroke-width:1.0;"/><line style="stroke:#181818;stroke-width:1.0;" x1="89" x2="89" y1="556.2656" y2="576.2656"/><polygon fill="#181818" points="85,566.2656,89,576.2656,93,566.2656,89,570.2656" style="stroke:#181818;stroke-width:1.0;"/><line style="stroke:#181818;stroke-width:1.0;" x1="116.75" x2="89" y1="499.1719" y2="499.1719"/><line style="stroke:#181818;stroke-width:1.0;" x1="89" x2="89" y1="499.1719" y2="521.1719"/><polygon fill="#181818" points="85,511.1719,89,521.1719,93,511.1719,89,515.1719" style="stroke:#181818;stroke-width:1.0;"/><line style="stroke:#181818;stroke-width:1.0;" x1="223.75" x2="251.5" y1="499.1719" y2="499.1719"/><line style="stroke:#181818;stroke-width:1.0;" x1="251.5" x2="251.5" y1="499.1719" y2="521.1719"/><polygon fill="#181818" points="247.5,511.1719,251.5,521.1719,255.5,511.1719,251.5,515.1719" style="stroke:#181818;stroke-width:1.0;"/><line style="stroke:#181818;stroke-width:1.0;" x1="89" x2="89" y1="611.3594" y2="629.3594"/><line style="stroke:#181818;stroke-width:1.0;" x1="89" x2="158.25" y1="629.3594" y2="629.3594"/><polygon fill="#181818" points="148.25,625.3594,158.25,629.3594,148.25,633.3594,152.25,629.3594" style="stroke:#181818;stroke-width:1.0;"/><line style="stroke:#181818;stroke-width:1.0;" x1="251.5" x2="251.5" y1="556.2656" y2="629.3594"/><line style="stroke:#181818;stroke-width:1.0;" x1="251.5" x2="182.25" y1="629.3594" y2="629.3594"/><polygon fill="#181818" points="192.25,625.3594,182.25,629.3594,192.25,633.3594,188.25,629.3594" style="stroke:#181818;stroke-width:1.0;"/><line style="stroke:#181818;stroke-width:1.0;" x1="170.25" x2="170.25" y1="467.1719" y2="487.1719"/><polygon fill="#181818" points="166.25,477.1719,170.25,487.1719,174.25,477.1719,170.25,481.1719" style="stroke:#181818;stroke-width:1.0;"/><line style="stroke:#181818;stroke-width:1.0;" x1="222.375" x2="170.25" y1="244.7969" y2="244.7969"/><line style="stroke:#181818;stroke-width:1.0;" x1="170.25" x2="170.25" y1="244.7969" y2="266.7969"/><polygon fill="#181818" points="166.25,256.7969,170.25,266.7969,174.25,256.7969,170.25,260.7969" style="stroke:#181818;stroke-width:1.0;"/><line style="stroke:#181818;stroke-width:1.0;" x1="391.375" x2="443.5" y1="244.7969" y2="244.7969"/><line style="stroke:#181818;stroke-width:1.0;" x1="443.5" x2="443.5" y1="244.7969" y2="266.7969"/><polygon fill="#181818" points="439.5,256.7969,443.5,266.7969,447.5,256.7969,443.5,260.7969" style="stroke:#181818;stroke-width:1.0;"/><line style="stroke:#181818;stroke-width:1.0;" x1="170.25" x2="170.25" y1="641.3594" y2="659.3594"/><line style="stroke:#181818;stroke-width:1.0;" x1="170.25" x2="294.875" y1="659.3594" y2="659.3594"/><polygon fill="#181818" points="284.875,655.3594,294.875,659.3594,284.875,663.3594,288.875,659.3594" style="stroke:#181818;stroke-width:1.0;"/><line style="stroke:#181818;stroke-width:1.0;" x1="443.5" x2="443.5" y1="301.8906" y2="659.3594"/><line style="stroke:#181818;stroke-width:1.0;" x1="443.5" x2="318.875" y1="659.3594" y2="659.3594"/><polygon fill="#181818" points="328.875,655.3594,318.875,659.3594,328.875,663.3594,324.875,659.3594" style="stroke:#181818;stroke-width:1.0;"/><line style="stroke:#181818;stroke-width:1.0;" x1="306.875" x2="306.875" y1="212.7969" y2="232.7969"/><polygon fill="#181818" points="302.875,222.7969,306.875,232.7969,310.875,222.7969,306.875,226.7969" style="stroke:#181818;stroke-width:1.0;"/><line style="stroke:#181818;stroke-width:1.0;" x1="420.6875" x2="306.875" y1="155.7031" y2="155.7031"/><line style="stroke:#181818;stroke-width:1.0;" x1="306.875" x2="306.875" y1="155.7031" y2="177.7031"/><polygon fill="#181818" points="302.875,167.7031,306.875,177.7031,310.875,167.7031,306.875,171.7031" style="stroke:#181818;stroke-width:1.0;"/><line style="stroke:#181818;stroke-width:1.0;" x1="537.6875" x2="651.5" y1="155.7031" y2="155.7031"/><line style="stroke:#181818;stroke-width:1.0;" x1="651.5" x2="651.5" y1="155.7031" y2="177.7031"/><polygon fill="#181818" points="647.5,167.7031,651.5,177.7031,655.5,167.7031,651.5,171.7031" style="stroke:#181818;stroke-width:1.0;"/><line style="stroke:#181818;stroke-width:1.0;" x1="306.875" x2="306.875" y1="671.3594" y2="689.3594"/><line style="stroke:#181818;stroke-width:1.0;" x1="306.875" x2="467.1875" y1="689.3594" y2="689.3594"/><polygon fill="#181818" points="457.1875,685.3594,467.1875,689.3594,457.1875,693.3594,461.1875,689.3594" style="stroke:#181818;stroke-width:1.0;"/><line style="stroke:#181818;stroke-width:1.0;" x1="651.5" x2="651.5" y1="212.7969" y2="689.3594"/><line style="stroke:#181818;stroke-width:1.0;" x1="651.5" x2="491.1875" y1="689.3594" y2="689.3594"/><polygon fill="#181818" points="501.1875,685.3594,491.1875,689.3594,501.1875,693.3594,497.1875,689.3594" style="stroke:#181818;stroke-width:1.0;"/><line style="stroke:#181818;stroke-width:1.0;" x1="479.1875" x2="479.1875" y1="123.7031" y2="143.7031"/><polygon fill="#181818" points="475.1875,133.7031,479.1875,143.7031,483.1875,133.7031,479.1875,137.7031" style="stroke:#181818;stroke-width:1.0;"/><line style="stroke:#181818;stroke-width:1.0;" x1="479.1875" x2="479.1875" y1="701.3594" y2="721.3594"/><polygon fill="#181818" points="475.1875,711.3594,479.1875,721.3594,483.1875,711.3594,479.1875,715.3594" style="stroke:#181818;stroke-width:1.0;"/><!--SRC=[XP8nRiCm34LtduBe4cVe1PAX21m4wD0qI4-WsBHBG9OCaiwTV0vVh9Bjr6fHe1gbp_VvAIgfHJYIQTYqBKArCQNIdNGS19xXOhZqFGiKnbLK6OMyE1NRB1Crh5csAxoJtYeo14nfr5ZVz0630hNdrYW5mJxBg8RyzBY0hhzP6WU4bote9ph8ttlQPX1EGgp6GGrP2JImPkK5N5H6v6KSc7mL-oOd9LCtyNr_HzQ_y9F51qB7up1NCExNboksdIK6L13VjwZA69DLNeIG5-T9Ufol01rZGw81c80EgkWgdXeFEKgIs5SCiZ5LIouMf64UWOxVsaEKhGaEPObT-1LSSqn6PwzKKpdFDVvUb2ta7yBNP3urEMEJt6W58RzYtSj_3WWSPKbjM8nw3Z5Zpjubitv34TCWF2N-OJUGs-0aJpDdOVogtwqBuw8rIUSTtMBZIu6exxu0]--></g></svg>