<?xml version="1.0" encoding="us-ascii" standalone="no"?><svg xmlns="http://www.w3.org/2000/svg" xmlns:xlink="http://www.w3.org/1999/xlink" contentStyleType="text/css" height="872px" preserveAspectRatio="none" style="width:749px;height:872px;background:#FFFFFF;" version="1.1" viewBox="0 0 749 872" width="749px" zoomAndPan="magnify"><defs/><g><text fill="#000000" font-family="sans-serif" font-size="14" font-weight="bold" lengthAdjust="spacing" textLength="416.4375" x="162.2813" y="29.5332">S&#233;quence &#8212; Pr&#233;inscription et soumission de dossier (CFC)</text><line style="stroke:#181818;stroke-width:0.5;stroke-dasharray:5.0,5.0;" x1="36" x2="36" y1="121.2188" y2="790.25"/><line style="stroke:#181818;stroke-width:0.5;stroke-dasharray:5.0,5.0;" x1="220" x2="220" y1="121.2188" y2="790.25"/><line style="stroke:#181818;stroke-width:0.5;stroke-dasharray:5.0,5.0;" x1="389" x2="389" y1="121.2188" y2="790.25"/><line style="stroke:#181818;stroke-width:0.5;stroke-dasharray:5.0,5.0;" x1="528" x2="528" y1="121.2188" y2="790.25"/><line style="stroke:#181818;stroke-width:0.5;stroke-dasharray:5.0,5.0;" x1="670" x2="670" y1="121.2188" y2="790.25"/><text fill="#000000" font-family="sans-serif" font-size="14" lengthAdjust="spacing" textLength="57" x="5" y="118.1426">Candidat</text><ellipse cx="36.5" cy="52.1094" fill="#E2E2F0" rx="8" ry="8" style="stroke:#181818;stroke-width:0.5;"/><path d="M36.5,60.1094 L36.5,87.1094 M23.5,68.1094 L49.5,68.1094 M36.5,87.1094 L23.5,102.1094 M36.5,87.1094 L49.5,102.1094 " fill="none" style="stroke:#181818;stroke-width:0.5;"/><text fill="#000000" font-family="sans-serif" font-size="14" lengthAdjust="spacing" textLength="57" x="5" y="803.7832">Candidat</text><ellipse cx="36.5" cy="815.3594" fill="#E2E2F0" rx="8" ry="8" style="stroke:#181818;stroke-width:0.5;"/><path d="M36.5,823.3594 L36.5,850.3594 M23.5,831.3594 L49.5,831.3594 M36.5,850.3594 L23.5,865.3594 M36.5,850.3594 L49.5,865.3594 " fill="none" style="stroke:#181818;stroke-width:0.5;"/><rect fill="#E2E2F0" height="31.6094" rx="2.5" ry="2.5" style="stroke:#181818;stroke-width:0.5;" width="149" x="146" y="88.6094"/><text fill="#000000" font-family="sans-serif" font-size="14" lengthAdjust="spacing" textLength="135" x="153" y="110.1426">Application Web CFC</text><rect fill="#E2E2F0" height="31.6094" rx="2.5" ry="2.5" style="stroke:#181818;stroke-width:0.5;" width="149" x="146" y="789.25"/><text fill="#000000" font-family="sans-serif" font-size="14" lengthAdjust="spacing" textLength="135" x="153" y="810.7832">Application Web CFC</text><rect fill="#E2E2F0" height="31.6094" rx="2.5" ry="2.5" style="stroke:#181818;stroke-width:0.5;" width="129" x="325" y="88.6094"/><text fill="#000000" font-family="sans-serif" font-size="14" lengthAdjust="spacing" textLength="115" x="332" y="110.1426">Service Formation</text><rect fill="#E2E2F0" height="31.6094" rx="2.5" ry="2.5" style="stroke:#181818;stroke-width:0.5;" width="129" x="325" y="789.25"/><text fill="#000000" font-family="sans-serif" font-size="14" lengthAdjust="spacing" textLength="115" x="332" y="810.7832">Service Formation</text><rect fill="#E2E2F0" height="31.6094" rx="2.5" ry="2.5" style="stroke:#181818;stroke-width:0.5;" width="129" x="464" y="88.6094"/><text fill="#000000" font-family="sans-serif" font-size="14" lengthAdjust="spacing" textLength="115" x="471" y="110.1426">Service Inscription</text><rect fill="#E2E2F0" height="31.6094" rx="2.5" ry="2.5" style="stroke:#181818;stroke-width:0.5;" width="129" x="464" y="789.25"/><text fill="#000000" font-family="sans-serif" font-size="14" lengthAdjust="spacing" textLength="115" x="471" y="810.7832">Service Inscription</text><rect fill="#E2E2F0" height="31.6094" rx="2.5" ry="2.5" style="stroke:#181818;stroke-width:0.5;" width="134" x="603" y="88.6094"/><text fill="#000000" font-family="sans-serif" font-size="14" lengthAdjust="spacing" textLength="120" x="610" y="110.1426">Service Notification</text><rect fill="#E2E2F0" height="31.6094" rx="2.5" ry="2.5" style="stroke:#181818;stroke-width:0.5;" width="134" x="603" y="789.25"/><text fill="#000000" font-family="sans-serif" font-size="14" lengthAdjust="spacing" textLength="120" x="610" y="810.7832">Service Notification</text><rect fill="#EEEEEE" height="3" style="stroke:#EEEEEE;stroke-width:1.0;" width="742" x="0" y="152.3945"/><line style="stroke:#000000;stroke-width:1.0;" x1="0" x2="742" y1="152.3945" y2="152.3945"/><line style="stroke:#000000;stroke-width:1.0;" x1="0" x2="742" y1="155.3945" y2="155.3945"/><rect fill="#EEEEEE" height="24.3516" style="stroke:#000000;stroke-width:2.0;" width="184" x="279" y="141.2188"/><text fill="#000000" font-family="sans-serif" font-size="13" font-weight="bold" lengthAdjust="spacing" textLength="166" x="285" y="158.7139">Consultation du catalogue</text><polygon fill="#181818" points="208.5,193.9219,218.5,197.9219,208.5,201.9219,212.5,197.9219" style="stroke:#181818;stroke-width:1.0;"/><line style="stroke:#181818;stroke-width:1.0;" x1="36.5" x2="214.5" y1="197.9219" y2="197.9219"/><text fill="#000000" font-family="sans-serif" font-size="13" lengthAdjust="spacing" textLength="115" x="43.5" y="193.0654">Consulter catalogue</text><polygon fill="#181818" points="377.5,224.2734,387.5,228.2734,377.5,232.2734,381.5,228.2734" style="stroke:#181818;stroke-width:1.0;"/><line style="stroke:#181818;stroke-width:1.0;" x1="220.5" x2="383.5" y1="228.2734" y2="228.2734"/><text fill="#000000" font-family="sans-serif" font-size="13" lengthAdjust="spacing" textLength="141" x="227.5" y="223.417">getFormationsPubliees()</text><polygon fill="#181818" points="231.5,254.625,221.5,258.625,231.5,262.625,227.5,258.625" style="stroke:#181818;stroke-width:1.0;"/><line style="stroke:#181818;stroke-width:1.0;stroke-dasharray:2.0,2.0;" x1="225.5" x2="388.5" y1="258.625" y2="258.625"/><text fill="#000000" font-family="sans-serif" font-size="13" lengthAdjust="spacing" textLength="117" x="237.5" y="253.7686">Liste des formations</text><polygon fill="#181818" points="47.5,284.9766,37.5,288.9766,47.5,292.9766,43.5,288.9766" style="stroke:#181818;stroke-width:1.0;"/><line style="stroke:#181818;stroke-width:1.0;stroke-dasharray:2.0,2.0;" x1="41.5" x2="219.5" y1="288.9766" y2="288.9766"/><text fill="#000000" font-family="sans-serif" font-size="13" lengthAdjust="spacing" textLength="113" x="53.5" y="284.1201">Affichage catalogue</text><rect fill="#EEEEEE" height="3" style="stroke:#EEEEEE;stroke-width:1.0;" width="742" x="0" y="318.1523"/><line style="stroke:#000000;stroke-width:1.0;" x1="0" x2="742" y1="318.1523" y2="318.1523"/><line style="stroke:#000000;stroke-width:1.0;" x1="0" x2="742" y1="321.1523" y2="321.1523"/><rect fill="#EEEEEE" height="24.3516" style="stroke:#000000;stroke-width:2.0;" width="106" x="318" y="306.9766"/><text fill="#000000" font-family="sans-serif" font-size="13" font-weight="bold" lengthAdjust="spacing" textLength="88" x="324" y="324.4717">Pr&#233;inscription</text><polygon fill="#181818" points="208.5,359.6797,218.5,363.6797,208.5,367.6797,212.5,363.6797" style="stroke:#181818;stroke-width:1.0;"/><line style="stroke:#181818;stroke-width:1.0;" x1="36.5" x2="214.5" y1="363.6797" y2="363.6797"/><text fill="#000000" font-family="sans-serif" font-size="13" lengthAdjust="spacing" textLength="80" x="43.5" y="358.8232">Se pr&#233;inscrire</text><polygon fill="#181818" points="377.5,390.0313,387.5,394.0313,377.5,398.0313,381.5,394.0313" style="stroke:#181818;stroke-width:1.0;"/><line style="stroke:#181818;stroke-width:1.0;" x1="220.5" x2="383.5" y1="394.0313" y2="394.0313"/><text fill="#000000" font-family="sans-serif" font-size="13" lengthAdjust="spacing" textLength="145" x="227.5" y="389.1748">verifierFormationPubliee()</text><polygon fill="#181818" points="231.5,420.3828,221.5,424.3828,231.5,428.3828,227.5,424.3828" style="stroke:#181818;stroke-width:1.0;"/><line style="stroke:#181818;stroke-width:1.0;stroke-dasharray:2.0,2.0;" x1="225.5" x2="388.5" y1="424.3828" y2="424.3828"/><text fill="#000000" font-family="sans-serif" font-size="13" lengthAdjust="spacing" textLength="19" x="237.5" y="419.5264">OK</text><polygon fill="#181818" points="516.5,450.7344,526.5,454.7344,516.5,458.7344,520.5,454.7344" style="stroke:#181818;stroke-width:1.0;"/><line style="stroke:#181818;stroke-width:1.0;" x1="220.5" x2="522.5" y1="454.7344" y2="454.7344"/><text fill="#000000" font-family="sans-serif" font-size="13" lengthAdjust="spacing" textLength="147" x="227.5" y="449.8779">verifierPeriodeInscription()</text><polygon fill="#181818" points="231.5,481.0859,221.5,485.0859,231.5,489.0859,227.5,485.0859" style="stroke:#181818;stroke-width:1.0;"/><line style="stroke:#181818;stroke-width:1.0;stroke-dasharray:2.0,2.0;" x1="225.5" x2="527.5" y1="485.0859" y2="485.0859"/><text fill="#000000" font-family="sans-serif" font-size="13" lengthAdjust="spacing" textLength="89" x="237.5" y="480.2295">P&#233;riode ouverte</text><polygon fill="#181818" points="516.5,511.4375,526.5,515.4375,516.5,519.4375,520.5,515.4375" style="stroke:#181818;stroke-width:1.0;"/><line style="stroke:#181818;stroke-width:1.0;" x1="220.5" x2="522.5" y1="515.4375" y2="515.4375"/><text fill="#000000" font-family="sans-serif" font-size="13" lengthAdjust="spacing" textLength="116" x="227.5" y="510.5811">creerPreinscription()</text><polygon fill="#181818" points="231.5,541.7891,221.5,545.7891,231.5,549.7891,227.5,545.7891" style="stroke:#181818;stroke-width:1.0;"/><line style="stroke:#181818;stroke-width:1.0;stroke-dasharray:2.0,2.0;" x1="225.5" x2="527.5" y1="545.7891" y2="545.7891"/><text fill="#000000" font-family="sans-serif" font-size="13" lengthAdjust="spacing" textLength="115" x="237.5" y="540.9326">Pr&#233;inscription cr&#233;&#233;e</text><rect fill="#EEEEEE" height="3" style="stroke:#EEEEEE;stroke-width:1.0;" width="742" x="0" y="574.9648"/><line style="stroke:#000000;stroke-width:1.0;" x1="0" x2="742" y1="574.9648" y2="574.9648"/><line style="stroke:#000000;stroke-width:1.0;" x1="0" x2="742" y1="577.9648" y2="577.9648"/><rect fill="#EEEEEE" height="24.3516" style="stroke:#000000;stroke-width:2.0;" width="160" x="291" y="563.7891"/><text fill="#000000" font-family="sans-serif" font-size="13" font-weight="bold" lengthAdjust="spacing" textLength="142" x="297" y="581.2842">Soumission du dossier</text><polygon fill="#181818" points="208.5,616.4922,218.5,620.4922,208.5,624.4922,212.5,620.4922" style="stroke:#181818;stroke-width:1.0;"/><line style="stroke:#181818;stroke-width:1.0;" x1="36.5" x2="214.5" y1="620.4922" y2="620.4922"/><text fill="#000000" font-family="sans-serif" font-size="13" lengthAdjust="spacing" textLength="106" x="43.5" y="615.6357">Soumettre dossier</text><polygon fill="#181818" points="516.5,646.8438,526.5,650.8438,516.5,654.8438,520.5,650.8438" style="stroke:#181818;stroke-width:1.0;"/><line style="stroke:#181818;stroke-width:1.0;" x1="220.5" x2="522.5" y1="650.8438" y2="650.8438"/><text fill="#000000" font-family="sans-serif" font-size="13" lengthAdjust="spacing" textLength="113" x="227.5" y="645.9873">enregistrerDossier()</text><polygon fill="#181818" points="231.5,677.1953,221.5,681.1953,231.5,685.1953,227.5,681.1953" style="stroke:#181818;stroke-width:1.0;"/><line style="stroke:#181818;stroke-width:1.0;stroke-dasharray:2.0,2.0;" x1="225.5" x2="527.5" y1="681.1953" y2="681.1953"/><text fill="#000000" font-family="sans-serif" font-size="13" lengthAdjust="spacing" textLength="105" x="237.5" y="676.3389">Dossier enregistr&#233;</text><polygon fill="#181818" points="658,707.5469,668,711.5469,658,715.5469,662,711.5469" style="stroke:#181818;stroke-width:1.0;"/><line style="stroke:#181818;stroke-width:1.0;" x1="220.5" x2="664" y1="711.5469" y2="711.5469"/><text fill="#000000" font-family="sans-serif" font-size="13" lengthAdjust="spacing" textLength="166" x="227.5" y="706.6904">notifierAdminEtablissement()</text><polygon fill="#181818" points="231.5,737.8984,221.5,741.8984,231.5,745.8984,227.5,741.8984" style="stroke:#181818;stroke-width:1.0;"/><line style="stroke:#181818;stroke-width:1.0;stroke-dasharray:2.0,2.0;" x1="225.5" x2="669" y1="741.8984" y2="741.8984"/><text fill="#000000" font-family="sans-serif" font-size="13" lengthAdjust="spacing" textLength="115" x="237.5" y="737.042">Notification envoy&#233;e</text><polygon fill="#181818" points="47.5,768.25,37.5,772.25,47.5,776.25,43.5,772.25" style="stroke:#181818;stroke-width:1.0;"/><line style="stroke:#181818;stroke-width:1.0;stroke-dasharray:2.0,2.0;" x1="41.5" x2="219.5" y1="772.25" y2="772.25"/><text fill="#000000" font-family="sans-serif" font-size="13" lengthAdjust="spacing" textLength="160" x="53.5" y="767.3936">Confirmation de soumission</text><!--SRC=[bLHBJiD03DtFAInMxQ8Ng5Iagb09WQ1I5wodYLj6IcQ2nwd4ZaDmYPmZD-4aEBz9QACWLidOxzb-zdZOS8AmBult76s4yFtv1Jig2sDzH2PZuomWWtTvQholJZ52xEGN2MQRxMQkb8xO4MoqZKsiMMMQs4GcqvRXPfrbYObq7USL3o2C6z0UnFuRk4Sw6obWwoYjuJKid5htEEUXBxPc3SwJl6V7vjXMLnE7XewfLYlOEElpX1iPSGw2q8axvGYhbUg4m-AsaWNB3YuT2a1LUGHmAKZG9-HWzRlya1X4FvkhA-WY97WodcKCwE4Oc4q6WOHwbh0-YfetVS918PMUomcFgjWZP057KmhEID8sfE1gLKoBU7bKNSphWGsYxkJhOXnW9Eu8eu-yAukQ0YwN88pJUI92IK9e_f7Wed-HdCkYwUr-i2fvM9Nn3WiKcIbir6ITQ0bFCdX2kclWVvNPmdfcMOHMZ5nrOTZQYhIEKsFlMSiOlSSKBKkkCKgVREYLZ6VtKNTav5RAUXnDUosgvwH_NDGF]--></g></svg>