<?xml version="1.0" encoding="us-ascii" standalone="no"?><svg xmlns="http://www.w3.org/2000/svg" xmlns:xlink="http://www.w3.org/1999/xlink" contentStyleType="text/css" height="793px" preserveAspectRatio="none" style="width:689px;height:793px;background:#FFFFFF;" version="1.1" viewBox="0 0 689 793" width="689px" zoomAndPan="magnify"><defs/><g><text fill="#000000" font-family="sans-serif" font-size="14" font-weight="bold" lengthAdjust="spacing" textLength="437.4375" x="126.7813" y="29.5332">S&#233;quence A &#8212; Ouverture des inscriptions par le Coordinateur</text><rect fill="#FFFFFF" height="116.4063" style="stroke:#181818;stroke-width:1.0;" width="10" x="298.5" y="157.1797"/><rect fill="#FFFFFF" height="30.3516" style="stroke:#181818;stroke-width:1.0;" width="10" x="515.5" y="187.5313"/><rect fill="#FFFFFF" height="30.3516" style="stroke:#181818;stroke-width:1.0;" width="10" x="515.5" y="396.8281"/><rect fill="#FFFFFF" height="30.3516" style="stroke:#181818;stroke-width:1.0;" width="10" x="515.5" y="549.5859"/><rect fill="#FFFFFF" height="30.3516" style="stroke:#181818;stroke-width:1.0;" width="10" x="625.5" y="610.2891"/><rect fill="none" height="446.1094" style="stroke:#000000;stroke-width:1.5;" width="672" x="10" y="232.8828"/><rect fill="none" height="61.7031" style="stroke:#000000;stroke-width:1.5;" width="239" x="259.5" y="442.1797"/><line style="stroke:#181818;stroke-width:0.5;stroke-dasharray:5.0,5.0;" x1="64" x2="64" y1="124.8281" y2="695.9922"/><line style="stroke:#181818;stroke-width:0.5;stroke-dasharray:5.0,5.0;" x1="303.5" x2="303.5" y1="124.8281" y2="695.9922"/><line style="stroke:#181818;stroke-width:0.5;stroke-dasharray:5.0,5.0;" x1="520" x2="520" y1="124.8281" y2="695.9922"/><line style="stroke:#181818;stroke-width:0.5;stroke-dasharray:5.0,5.0;" x1="630" x2="630" y1="124.8281" y2="695.9922"/><text fill="#000000" font-family="sans-serif" font-size="14" lengthAdjust="spacing" textLength="83" x="20" y="121.752">Coordinateur</text><ellipse cx="64.5" cy="55.7188" fill="#E2E2F0" rx="8" ry="8" style="stroke:#181818;stroke-width:0.5;"/><path d="M64.5,63.7188 L64.5,90.7188 M51.5,71.7188 L77.5,71.7188 M64.5,90.7188 L51.5,105.7188 M64.5,90.7188 L77.5,105.7188 " fill="none" style="stroke:#181818;stroke-width:0.5;"/><text fill="#000000" font-family="sans-serif" font-size="14" lengthAdjust="spacing" textLength="83" x="20" y="709.5254">Coordinateur</text><ellipse cx="64.5" cy="721.1016" fill="#E2E2F0" rx="8" ry="8" style="stroke:#181818;stroke-width:0.5;"/><path d="M64.5,729.1016 L64.5,756.1016 M51.5,737.1016 L77.5,737.1016 M64.5,756.1016 L51.5,771.1016 M64.5,756.1016 L77.5,771.1016 " fill="none" style="stroke:#181818;stroke-width:0.5;"/><rect fill="#E2E2F0" height="49.2188" rx="2.5" ry="2.5" style="stroke:#181818;stroke-width:0.5;" width="68" x="269.5" y="74.6094"/><text fill="#000000" font-family="sans-serif" font-size="14" lengthAdjust="spacing" textLength="40" x="283.5" y="96.1426">Portail</text><text fill="#000000" font-family="sans-serif" font-size="14" lengthAdjust="spacing" textLength="54" x="276.5" y="113.752">Syst&#232;me</text><rect fill="#E2E2F0" height="49.2188" rx="2.5" ry="2.5" style="stroke:#181818;stroke-width:0.5;" width="68" x="269.5" y="694.9922"/><text fill="#000000" font-family="sans-serif" font-size="14" lengthAdjust="spacing" textLength="40" x="283.5" y="716.5254">Portail</text><text fill="#000000" font-family="sans-serif" font-size="14" lengthAdjust="spacing" textLength="54" x="276.5" y="734.1348">Syst&#232;me</text><text fill="#000000" font-family="sans-serif" font-size="14" lengthAdjust="spacing" textLength="111" x="462" y="104.1426">Base de donn&#233;es</text><text fill="#000000" font-family="sans-serif" font-size="14" lengthAdjust="spacing" textLength="71" x="482" y="121.752">Inscriptions</text><path d="M502.5,53.6094 C502.5,43.6094 520.5,43.6094 520.5,43.6094 C520.5,43.6094 538.5,43.6094 538.5,53.6094 L538.5,79.6094 C538.5,89.6094 520.5,89.6094 520.5,89.6094 C520.5,89.6094 502.5,89.6094 502.5,79.6094 L502.5,53.6094 " fill="#E2E2F0" style="stroke:#181818;stroke-width:1.5;"/><path d="M502.5,53.6094 C502.5,63.6094 520.5,63.6094 520.5,63.6094 C520.5,63.6094 538.5,63.6094 538.5,53.6094 " fill="none" style="stroke:#181818;stroke-width:1.5;"/><text fill="#000000" font-family="sans-serif" font-size="14" lengthAdjust="spacing" textLength="111" x="462" y="709.5254">Base de donn&#233;es</text><text fill="#000000" font-family="sans-serif" font-size="14" lengthAdjust="spacing" textLength="71" x="482" y="727.1348">Inscriptions</text><path d="M502.5,740.2109 C502.5,730.2109 520.5,730.2109 520.5,730.2109 C520.5,730.2109 538.5,730.2109 538.5,740.2109 L538.5,766.2109 C538.5,776.2109 520.5,776.2109 520.5,776.2109 C520.5,776.2109 502.5,776.2109 502.5,766.2109 L502.5,740.2109 " fill="#E2E2F0" style="stroke:#181818;stroke-width:1.5;"/><path d="M502.5,740.2109 C502.5,750.2109 520.5,750.2109 520.5,750.2109 C520.5,750.2109 538.5,750.2109 538.5,740.2109 " fill="none" style="stroke:#181818;stroke-width:1.5;"/><rect fill="#E2E2F0" height="49.2188" rx="2.5" ry="2.5" style="stroke:#181818;stroke-width:0.5;" width="83" x="589" y="74.6094"/><text fill="#000000" font-family="sans-serif" font-size="14" lengthAdjust="spacing" textLength="67" x="597" y="96.1426">Service de</text><text fill="#000000" font-family="sans-serif" font-size="14" lengthAdjust="spacing" textLength="69" x="596" y="113.752">Notification</text><rect fill="#E2E2F0" height="49.2188" rx="2.5" ry="2.5" style="stroke:#181818;stroke-width:0.5;" width="83" x="589" y="694.9922"/><text fill="#000000" font-family="sans-serif" font-size="14" lengthAdjust="spacing" textLength="67" x="597" y="716.5254">Service de</text><text fill="#000000" font-family="sans-serif" font-size="14" lengthAdjust="spacing" textLength="69" x="596" y="734.1348">Notification</text><rect fill="#FFFFFF" height="116.4063" style="stroke:#181818;stroke-width:1.0;" width="10" x="298.5" y="157.1797"/><rect fill="#FFFFFF" height="30.3516" style="stroke:#181818;stroke-width:1.0;" width="10" x="515.5" y="187.5313"/><rect fill="#FFFFFF" height="30.3516" style="stroke:#181818;stroke-width:1.0;" width="10" x="515.5" y="396.8281"/><rect fill="#FFFFFF" height="30.3516" style="stroke:#181818;stroke-width:1.0;" width="10" x="515.5" y="549.5859"/><rect fill="#FFFFFF" height="30.3516" style="stroke:#181818;stroke-width:1.0;" width="10" x="625.5" y="610.2891"/><polygon fill="#181818" points="286.5,153.1797,296.5,157.1797,286.5,161.1797,290.5,157.1797" style="stroke:#181818;stroke-width:1.0;"/><line style="stroke:#181818;stroke-width:1.0;" x1="64.5" x2="292.5" y1="157.1797" y2="157.1797"/><text fill="#000000" font-family="sans-serif" font-size="13" lengthAdjust="spacing" textLength="151" x="71.5" y="152.3232">Se connecter (identifiants)</text><polygon fill="#181818" points="503.5,183.5313,513.5,187.5313,503.5,191.5313,507.5,187.5313" style="stroke:#181818;stroke-width:1.0;"/><line style="stroke:#181818;stroke-width:1.0;" x1="308.5" x2="509.5" y1="187.5313" y2="187.5313"/><text fill="#000000" font-family="sans-serif" font-size="13" lengthAdjust="spacing" textLength="106" x="315.5" y="182.6748">V&#233;rifier identifiants</text><polygon fill="#181818" points="319.5,213.8828,309.5,217.8828,319.5,221.8828,315.5,217.8828" style="stroke:#181818;stroke-width:1.0;"/><line style="stroke:#181818;stroke-width:1.0;stroke-dasharray:2.0,2.0;" x1="313.5" x2="519.5" y1="217.8828" y2="217.8828"/><text fill="#000000" font-family="sans-serif" font-size="13" lengthAdjust="spacing" textLength="148" x="325.5" y="213.0264">R&#233;sultat d'authentification</text><path d="M10,232.8828 L71,232.8828 L71,241.2344 L61,251.2344 L10,251.2344 L10,232.8828 " fill="#EEEEEE" style="stroke:#000000;stroke-width:1.5;"/><rect fill="none" height="446.1094" style="stroke:#000000;stroke-width:1.5;" width="672" x="10" y="232.8828"/><text fill="#000000" font-family="sans-serif" font-size="13" font-weight="bold" lengthAdjust="spacing" textLength="16" x="25" y="247.3779">alt</text><text fill="#000000" font-family="sans-serif" font-size="11" font-weight="bold" lengthAdjust="spacing" textLength="139" x="86" y="246.3018">[Authentification &#233;choue]</text><polygon fill="#181818" points="75.5,269.5859,65.5,273.5859,75.5,277.5859,71.5,273.5859" style="stroke:#181818;stroke-width:1.0;"/><line style="stroke:#181818;stroke-width:1.0;stroke-dasharray:2.0,2.0;" x1="69.5" x2="302.5" y1="273.5859" y2="273.5859"/><text fill="#000000" font-family="sans-serif" font-size="13" lengthAdjust="spacing" textLength="180" x="81.5" y="268.7295">Afficher erreur d'authentification</text><line style="stroke:#000000;stroke-width:1.0;stroke-dasharray:2.0,2.0;" x1="10" x2="682" y1="282.5859" y2="282.5859"/><text fill="#000000" font-family="sans-serif" font-size="11" font-weight="bold" lengthAdjust="spacing" textLength="141" x="15" y="294.0049">[Authentification r&#233;ussie]</text><polygon fill="#181818" points="75.5,315.7734,65.5,319.7734,75.5,323.7734,71.5,319.7734" style="stroke:#181818;stroke-width:1.0;"/><line style="stroke:#181818;stroke-width:1.0;stroke-dasharray:2.0,2.0;" x1="69.5" x2="302.5" y1="319.7734" y2="319.7734"/><text fill="#000000" font-family="sans-serif" font-size="13" lengthAdjust="spacing" textLength="136" x="81.5" y="314.917">Afficher tableau de bord</text><polygon fill="#181818" points="291.5,362.4766,301.5,366.4766,291.5,370.4766,295.5,366.4766" style="stroke:#181818;stroke-width:1.0;"/><line style="stroke:#181818;stroke-width:1.0;" x1="64.5" x2="297.5" y1="366.4766" y2="366.4766"/><text fill="#000000" font-family="sans-serif" font-size="13" lengthAdjust="spacing" textLength="215" x="71.5" y="345.2686">Demande d'ouverture des inscriptions</text><text fill="#000000" font-family="sans-serif" font-size="13" lengthAdjust="spacing" textLength="83" x="71.5" y="361.6201">(dates, r&#232;gles)</text><polygon fill="#181818" points="503.5,392.8281,513.5,396.8281,503.5,400.8281,507.5,396.8281" style="stroke:#181818;stroke-width:1.0;"/><line style="stroke:#181818;stroke-width:1.0;" x1="303.5" x2="509.5" y1="396.8281" y2="396.8281"/><text fill="#000000" font-family="sans-serif" font-size="13" lengthAdjust="spacing" textLength="169" x="310.5" y="391.9717">V&#233;rifier droits du coordinateur</text><polygon fill="#181818" points="314.5,423.1797,304.5,427.1797,314.5,431.1797,310.5,427.1797" style="stroke:#181818;stroke-width:1.0;"/><line style="stroke:#181818;stroke-width:1.0;stroke-dasharray:2.0,2.0;" x1="308.5" x2="519.5" y1="427.1797" y2="427.1797"/><text fill="#000000" font-family="sans-serif" font-size="13" lengthAdjust="spacing" textLength="94" x="320.5" y="422.3232">Droits confirm&#233;s</text><path d="M259.5,442.1797 L324.5,442.1797 L324.5,450.5313 L314.5,460.5313 L259.5,460.5313 L259.5,442.1797 " fill="#EEEEEE" style="stroke:#000000;stroke-width:1.5;"/><rect fill="none" height="61.7031" style="stroke:#000000;stroke-width:1.5;" width="239" x="259.5" y="442.1797"/><text fill="#000000" font-family="sans-serif" font-size="13" font-weight="bold" lengthAdjust="spacing" textLength="20" x="274.5" y="456.6748">opt</text><text fill="#000000" font-family="sans-serif" font-size="11" font-weight="bold" lengthAdjust="spacing" textLength="154" x="339.5" y="455.5986">[Validation des param&#232;tres]</text><line style="stroke:#181818;stroke-width:1.0;" x1="303.5" x2="345.5" y1="482.8828" y2="482.8828"/><line style="stroke:#181818;stroke-width:1.0;" x1="345.5" x2="345.5" y1="482.8828" y2="495.8828"/><line style="stroke:#181818;stroke-width:1.0;" x1="304.5" x2="345.5" y1="495.8828" y2="495.8828"/><polygon fill="#181818" points="314.5,491.8828,304.5,495.8828,314.5,499.8828,310.5,495.8828" style="stroke:#181818;stroke-width:1.0;"/><text fill="#000000" font-family="sans-serif" font-size="13" lengthAdjust="spacing" textLength="159" x="310.5" y="478.0264">Valider dates et contraintes</text><polygon fill="#181818" points="503.5,545.5859,513.5,549.5859,503.5,553.5859,507.5,549.5859" style="stroke:#181818;stroke-width:1.0;"/><line style="stroke:#181818;stroke-width:1.0;" x1="303.5" x2="509.5" y1="549.5859" y2="549.5859"/><text fill="#000000" font-family="sans-serif" font-size="13" lengthAdjust="spacing" textLength="162" x="310.5" y="528.3779">Mettre &#224; jour &#233;tat = "Ouvert"</text><text fill="#000000" font-family="sans-serif" font-size="13" lengthAdjust="spacing" textLength="193" x="310.5" y="544.7295">Enregistrer p&#233;riode et param&#232;tres</text><polygon fill="#181818" points="314.5,575.9375,304.5,579.9375,314.5,583.9375,310.5,579.9375" style="stroke:#181818;stroke-width:1.0;"/><line style="stroke:#181818;stroke-width:1.0;stroke-dasharray:2.0,2.0;" x1="308.5" x2="519.5" y1="579.9375" y2="579.9375"/><text fill="#000000" font-family="sans-serif" font-size="13" lengthAdjust="spacing" textLength="141" x="320.5" y="575.0811">Confirmation sauvegarde</text><polygon fill="#181818" points="613.5,606.2891,623.5,610.2891,613.5,614.2891,617.5,610.2891" style="stroke:#181818;stroke-width:1.0;"/><line style="stroke:#181818;stroke-width:1.0;" x1="303.5" x2="619.5" y1="610.2891" y2="610.2891"/><text fill="#000000" font-family="sans-serif" font-size="13" lengthAdjust="spacing" textLength="161" x="310.5" y="605.4326">Notifier &#233;tudiants (optionnel)</text><polygon fill="#181818" points="314.5,636.6406,304.5,640.6406,314.5,644.6406,310.5,640.6406" style="stroke:#181818;stroke-width:1.0;"/><line style="stroke:#181818;stroke-width:1.0;stroke-dasharray:2.0,2.0;" x1="308.5" x2="629.5" y1="640.6406" y2="640.6406"/><text fill="#000000" font-family="sans-serif" font-size="13" lengthAdjust="spacing" textLength="152" x="320.5" y="635.7842">Accus&#233; de r&#233;ception envoi</text><polygon fill="#181818" points="75.5,666.9922,65.5,670.9922,75.5,674.9922,71.5,670.9922" style="stroke:#181818;stroke-width:1.0;"/><line style="stroke:#181818;stroke-width:1.0;stroke-dasharray:2.0,2.0;" x1="69.5" x2="302.5" y1="670.9922" y2="670.9922"/><text fill="#000000" font-family="sans-serif" font-size="13" lengthAdjust="spacing" textLength="202" x="81.5" y="666.1357">Confirmation : inscriptions ouvertes</text><!--SRC=[ZLHBRXin3DtFAGXluW3D1GoqW1rdqKK_g86iPgD8jArYBBaIPQ2x7g87wD9p3jsa9oavuyIQYOtKC8oHp4S-yZqEMMeGLhdzaT1fX3dy_VKRlgG31ae1mM04ww8ETa_MkmXx5O0Hzzu7OvqYJA6gb2OVXdSSHrRRlN84awy-aB9DxLO_8-NZ3YUW8ZmVAgD8FQc8C5d8h-6lTowt66ltiIZUeHRBOUuLXeFLWghTPqzsRRMIw2wulAYgaY3SVNWXC8CLWkQIg0a3JAr19pZE7s-bENjWp9dlyuFaM2ndy9ZRmE4CBP5d85DUBE5kKF5RRcDgI16O6vLes-DEJ0sMs4er1FDH3EHMRtt22lXp9iGroYvdC5ypOilKC0Hf-q8roL1KV6aJ6nRZLTsGsnIZ_V_2h6s3AeciJnpGuQuhiSITSkA06t_LXBMRicKmlcConqs3BDAGp5WM4xob22QnoeL71LGEMiwlX5hsMBR7seOTgpQUboWaLtvFyAWQQ_ev2Masgjhb8mNiKMEMvoeTK9XANu0azIWew-W4HMUgYrr-GkByaF_0Ty_3pAruwZrC-XsUrEx11TpOo441zZ8Ip-Fb2cDoRqxYlXz1trvKd7-ZWi5hyoY9bdiuEvsm8vjCjommzPss3flR8Pl12ii_vSM8uLph57ChLcERQknIykWEtevP3jyCRtXvqFbi-4BiRSep58KkhD4_]--></g></svg>