<?xml version="1.0" encoding="us-ascii" standalone="no"?><svg xmlns="http://www.w3.org/2000/svg" xmlns:xlink="http://www.w3.org/1999/xlink" contentStyleType="text/css" height="393px" preserveAspectRatio="none" style="width:795px;height:393px;background:#FFFFFF;" version="1.1" viewBox="0 0 795 393" width="795px" zoomAndPan="magnify"><defs/><g><text fill="#000000" font-family="sans-serif" font-size="14" font-weight="bold" lengthAdjust="spacing" textLength="485.4375" x="155.7813" y="29.5332">S&#233;quence D &#8212; Fermeture automatique des inscriptions (Job planifi&#233;)</text><rect fill="none" height="185.9453" style="stroke:#000000;stroke-width:1.5;" width="778" x="10" y="153.9219"/><line style="stroke:#181818;stroke-width:0.5;stroke-dasharray:5.0,5.0;" x1="102" x2="102" y1="76.2188" y2="356.8672"/><line style="stroke:#181818;stroke-width:0.5;stroke-dasharray:5.0,5.0;" x1="375" x2="375" y1="76.2188" y2="356.8672"/><line style="stroke:#181818;stroke-width:0.5;stroke-dasharray:5.0,5.0;" x1="595" x2="595" y1="76.2188" y2="356.8672"/><line style="stroke:#181818;stroke-width:0.5;stroke-dasharray:5.0,5.0;" x1="711" x2="711" y1="76.2188" y2="356.8672"/><rect fill="#E2E2F0" height="31.6094" rx="2.5" ry="2.5" style="stroke:#181818;stroke-width:0.5;" width="164" x="20" y="43.6094"/><text fill="#000000" font-family="sans-serif" font-size="14" lengthAdjust="spacing" textLength="150" x="27" y="65.1426">Job Planifi&#233; (Scheduler)</text><rect fill="#E2E2F0" height="31.6094" rx="2.5" ry="2.5" style="stroke:#181818;stroke-width:0.5;" width="164" x="20" y="355.8672"/><text fill="#000000" font-family="sans-serif" font-size="14" lengthAdjust="spacing" textLength="150" x="27" y="377.4004">Job Planifi&#233; (Scheduler)</text><rect fill="#E2E2F0" height="31.6094" rx="2.5" ry="2.5" style="stroke:#181818;stroke-width:0.5;" width="116" x="317" y="43.6094"/><text fill="#000000" font-family="sans-serif" font-size="14" lengthAdjust="spacing" textLength="102" x="324" y="65.1426">Application CFC</text><rect fill="#E2E2F0" height="31.6094" rx="2.5" ry="2.5" style="stroke:#181818;stroke-width:0.5;" width="116" x="317" y="355.8672"/><text fill="#000000" font-family="sans-serif" font-size="14" lengthAdjust="spacing" textLength="102" x="324" y="377.4004">Application CFC</text><rect fill="#E2E2F0" height="31.6094" rx="2.5" ry="2.5" style="stroke:#181818;stroke-width:0.5;" width="78" x="556" y="43.6094"/><text fill="#000000" font-family="sans-serif" font-size="14" lengthAdjust="spacing" textLength="64" x="563" y="65.1426">Formation</text><rect fill="#E2E2F0" height="31.6094" rx="2.5" ry="2.5" style="stroke:#181818;stroke-width:0.5;" width="78" x="556" y="355.8672"/><text fill="#000000" font-family="sans-serif" font-size="14" lengthAdjust="spacing" textLength="64" x="563" y="377.4004">Formation</text><rect fill="#E2E2F0" height="31.6094" rx="2.5" ry="2.5" style="stroke:#181818;stroke-width:0.5;" width="134" x="644" y="43.6094"/><text fill="#000000" font-family="sans-serif" font-size="14" lengthAdjust="spacing" textLength="120" x="651" y="65.1426">Service Notification</text><rect fill="#E2E2F0" height="31.6094" rx="2.5" ry="2.5" style="stroke:#181818;stroke-width:0.5;" width="134" x="644" y="355.8672"/><text fill="#000000" font-family="sans-serif" font-size="14" lengthAdjust="spacing" textLength="120" x="651" y="377.4004">Service Notification</text><polygon fill="#181818" points="363,104.5703,373,108.5703,363,112.5703,367,108.5703" style="stroke:#181818;stroke-width:1.0;"/><line style="stroke:#181818;stroke-width:1.0;" x1="102" x2="369" y1="108.5703" y2="108.5703"/><text fill="#000000" font-family="sans-serif" font-size="13" lengthAdjust="spacing" textLength="249" x="109" y="103.7139">D&#233;clenchement automatique (date atteinte)</text><polygon fill="#181818" points="583,134.9219,593,138.9219,583,142.9219,587,138.9219" style="stroke:#181818;stroke-width:1.0;"/><line style="stroke:#181818;stroke-width:1.0;" x1="375" x2="589" y1="138.9219" y2="138.9219"/><text fill="#000000" font-family="sans-serif" font-size="13" lengthAdjust="spacing" textLength="196" x="382" y="134.0654">V&#233;rifier date_fermeture_inscription</text><path d="M10,153.9219 L71,153.9219 L71,162.2734 L61,172.2734 L10,172.2734 L10,153.9219 " fill="#EEEEEE" style="stroke:#000000;stroke-width:1.5;"/><rect fill="none" height="185.9453" style="stroke:#000000;stroke-width:1.5;" width="778" x="10" y="153.9219"/><text fill="#000000" font-family="sans-serif" font-size="13" font-weight="bold" lengthAdjust="spacing" textLength="16" x="25" y="168.417">alt</text><text fill="#000000" font-family="sans-serif" font-size="11" font-weight="bold" lengthAdjust="spacing" textLength="183" x="86" y="167.3408">[Date courante &gt; date_fermeture]</text><polygon fill="#181818" points="583,190.625,593,194.625,583,198.625,587,194.625" style="stroke:#181818;stroke-width:1.0;"/><line style="stroke:#181818;stroke-width:1.0;" x1="375" x2="589" y1="194.625" y2="194.625"/><text fill="#000000" font-family="sans-serif" font-size="13" lengthAdjust="spacing" textLength="130" x="382" y="189.7686">D&#233;sactiver inscriptions</text><polygon fill="#181818" points="386,220.9766,376,224.9766,386,228.9766,382,224.9766" style="stroke:#181818;stroke-width:1.0;"/><line style="stroke:#181818;stroke-width:1.0;stroke-dasharray:2.0,2.0;" x1="380" x2="594" y1="224.9766" y2="224.9766"/><text fill="#000000" font-family="sans-serif" font-size="13" lengthAdjust="spacing" textLength="116" x="392" y="220.1201">Inscriptions ferm&#233;es</text><polygon fill="#181818" points="699,251.3281,709,255.3281,699,259.3281,703,255.3281" style="stroke:#181818;stroke-width:1.0;"/><line style="stroke:#181818;stroke-width:1.0;" x1="375" x2="705" y1="255.3281" y2="255.3281"/><text fill="#000000" font-family="sans-serif" font-size="13" lengthAdjust="spacing" textLength="188" x="382" y="250.4717">Envoyer notification de fermeture</text><polygon fill="#181818" points="386,281.6797,376,285.6797,386,289.6797,382,285.6797" style="stroke:#181818;stroke-width:1.0;"/><line style="stroke:#181818;stroke-width:1.0;stroke-dasharray:2.0,2.0;" x1="380" x2="710" y1="285.6797" y2="285.6797"/><text fill="#000000" font-family="sans-serif" font-size="13" lengthAdjust="spacing" textLength="129" x="392" y="280.8232">Notifications envoy&#233;es</text><line style="stroke:#000000;stroke-width:1.0;stroke-dasharray:2.0,2.0;" x1="10" x2="788" y1="294.6797" y2="294.6797"/><text fill="#000000" font-family="sans-serif" font-size="11" font-weight="bold" lengthAdjust="spacing" textLength="101" x="15" y="306.0986">[Date non atteinte]</text><polygon fill="#181818" points="113,327.8672,103,331.8672,113,335.8672,109,331.8672" style="stroke:#181818;stroke-width:1.0;"/><line style="stroke:#181818;stroke-width:1.0;stroke-dasharray:2.0,2.0;" x1="107" x2="374" y1="331.8672" y2="331.8672"/><text fill="#000000" font-family="sans-serif" font-size="13" lengthAdjust="spacing" textLength="83" x="119" y="327.0107">Aucune action</text><!--SRC=[NP51QiCm44NtEiMGbRt81R88XAI6Tc4AWMw3Aa_8W2mvqYZGNG_HI_WSlabFqf5B6hbU-lzvC_-BYIt2SHgl2Pr1EC3tvnSq67ha511qOjzh9f6XmmZaeWaqC7aNeNhnxp1OxUXCqrWhDUZ0P6ZGZc6LnTUx2DNHNB1B5aEz0Xr1rALzDmoMZCvas3VxsIJ_bgR6Xtwsp7Ap58yORYGPMi-oqpnyhLBvcFKs0s43XsaqLk9Ui4SPB3DMdMP9pOpa66kL1sIkaQctQGp2nG3PSphVEpeLdIYbBSCXCunFGSv2sFxpAv2luCerKHkccv3BUcTV0-k_iv_BxZDk6Z6g4jUAwydT_8UWND62F1qizxS5j-mh0kRvcOmsucyM9uXx9uzz0iYrRc2NJ7BIcfahGDUf7m00]--></g></svg>