<?xml version="1.0" encoding="us-ascii" standalone="no"?><svg xmlns="http://www.w3.org/2000/svg" xmlns:xlink="http://www.w3.org/1999/xlink" contentStyleType="text/css" height="1121px" preserveAspectRatio="none" style="width:806px;height:1121px;background:#FFFFFF;" version="1.1" viewBox="0 0 806 1121" width="806px" zoomAndPan="magnify"><defs/><g><text fill="#000000" font-family="sans-serif" font-size="14" font-weight="bold" lengthAdjust="spacing" textLength="435" x="186.5" y="29.5332">S&#233;quence C - Validation / Refus d'un dossier par l'Admin (CFC)</text><rect fill="none" height="519.8125" style="stroke:#000000;stroke-width:1.5;" width="789" x="10" y="502.4375"/><line style="stroke:#181818;stroke-width:0.5;stroke-dasharray:5.0,5.0;" x1="93" x2="93" y1="121.2188" y2="1039.25"/><line style="stroke:#181818;stroke-width:0.5;stroke-dasharray:5.0,5.0;" x1="287" x2="287" y1="121.2188" y2="1039.25"/><line style="stroke:#181818;stroke-width:0.5;stroke-dasharray:5.0,5.0;" x1="446" x2="446" y1="121.2188" y2="1039.25"/><line style="stroke:#181818;stroke-width:0.5;stroke-dasharray:5.0,5.0;" x1="586" x2="586" y1="121.2188" y2="1039.25"/><line style="stroke:#181818;stroke-width:0.5;stroke-dasharray:5.0,5.0;" x1="722" x2="722" y1="121.2188" y2="1039.25"/><text fill="#000000" font-family="sans-serif" font-size="14" lengthAdjust="spacing" textLength="141" x="20" y="118.1426">Admin d'&#233;tablissement</text><ellipse cx="93.5" cy="52.1094" fill="#E2E2F0" rx="8" ry="8" style="stroke:#181818;stroke-width:0.5;"/><path d="M93.5,60.1094 L93.5,87.1094 M80.5,68.1094 L106.5,68.1094 M93.5,87.1094 L80.5,102.1094 M93.5,87.1094 L106.5,102.1094 " fill="none" style="stroke:#181818;stroke-width:0.5;"/><text fill="#000000" font-family="sans-serif" font-size="14" lengthAdjust="spacing" textLength="141" x="20" y="1052.7832">Admin d'&#233;tablissement</text><ellipse cx="93.5" cy="1064.3594" fill="#E2E2F0" rx="8" ry="8" style="stroke:#181818;stroke-width:0.5;"/><path d="M93.5,1072.3594 L93.5,1099.3594 M80.5,1080.3594 L106.5,1080.3594 M93.5,1099.3594 L80.5,1114.3594 M93.5,1099.3594 L106.5,1114.3594 " fill="none" style="stroke:#181818;stroke-width:0.5;"/><rect fill="#E2E2F0" height="31.6094" rx="2.5" ry="2.5" style="stroke:#181818;stroke-width:0.5;" width="149" x="213" y="88.6094"/><text fill="#000000" font-family="sans-serif" font-size="14" lengthAdjust="spacing" textLength="135" x="220" y="110.1426">Application Web CFC</text><rect fill="#E2E2F0" height="31.6094" rx="2.5" ry="2.5" style="stroke:#181818;stroke-width:0.5;" width="149" x="213" y="1038.25"/><text fill="#000000" font-family="sans-serif" font-size="14" lengthAdjust="spacing" textLength="135" x="220" y="1059.7832">Application Web CFC</text><rect fill="#E2E2F0" height="31.6094" rx="2.5" ry="2.5" style="stroke:#181818;stroke-width:0.5;" width="129" x="382" y="88.6094"/><text fill="#000000" font-family="sans-serif" font-size="14" lengthAdjust="spacing" textLength="115" x="389" y="110.1426">Service Inscription</text><rect fill="#E2E2F0" height="31.6094" rx="2.5" ry="2.5" style="stroke:#181818;stroke-width:0.5;" width="129" x="382" y="1038.25"/><text fill="#000000" font-family="sans-serif" font-size="14" lengthAdjust="spacing" textLength="115" x="389" y="1059.7832">Service Inscription</text><text fill="#000000" font-family="sans-serif" font-size="14" lengthAdjust="spacing" textLength="111" x="528" y="118.1426">Base de donn&#233;es</text><path d="M568.5,67.6094 C568.5,57.6094 586.5,57.6094 586.5,57.6094 C586.5,57.6094 604.5,57.6094 604.5,67.6094 L604.5,93.6094 C604.5,103.6094 586.5,103.6094 586.5,103.6094 C586.5,103.6094 568.5,103.6094 568.5,93.6094 L568.5,67.6094 " fill="#E2E2F0" style="stroke:#181818;stroke-width:1.5;"/><path d="M568.5,67.6094 C568.5,77.6094 586.5,77.6094 586.5,77.6094 C586.5,77.6094 604.5,77.6094 604.5,67.6094 " fill="none" style="stroke:#181818;stroke-width:1.5;"/><text fill="#000000" font-family="sans-serif" font-size="14" lengthAdjust="spacing" textLength="111" x="528" y="1052.7832">Base de donn&#233;es</text><path d="M568.5,1065.8594 C568.5,1055.8594 586.5,1055.8594 586.5,1055.8594 C586.5,1055.8594 604.5,1055.8594 604.5,1065.8594 L604.5,1091.8594 C604.5,1101.8594 586.5,1101.8594 586.5,1101.8594 C586.5,1101.8594 568.5,1101.8594 568.5,1091.8594 L568.5,1065.8594 " fill="#E2E2F0" style="stroke:#181818;stroke-width:1.5;"/><path d="M568.5,1065.8594 C568.5,1075.8594 586.5,1075.8594 586.5,1075.8594 C586.5,1075.8594 604.5,1075.8594 604.5,1065.8594 " fill="none" style="stroke:#181818;stroke-width:1.5;"/><rect fill="#E2E2F0" height="31.6094" rx="2.5" ry="2.5" style="stroke:#181818;stroke-width:0.5;" width="134" x="655" y="88.6094"/><text fill="#000000" font-family="sans-serif" font-size="14" lengthAdjust="spacing" textLength="120" x="662" y="110.1426">Service Notification</text><rect fill="#E2E2F0" height="31.6094" rx="2.5" ry="2.5" style="stroke:#181818;stroke-width:0.5;" width="134" x="655" y="1038.25"/><text fill="#000000" font-family="sans-serif" font-size="14" lengthAdjust="spacing" textLength="120" x="662" y="1059.7832">Service Notification</text><polygon fill="#181818" points="275.5,149.5703,285.5,153.5703,275.5,157.5703,279.5,153.5703" style="stroke:#181818;stroke-width:1.0;"/><line style="stroke:#181818;stroke-width:1.0;" x1="93.5" x2="281.5" y1="153.5703" y2="153.5703"/><text fill="#000000" font-family="sans-serif" font-size="13" lengthAdjust="spacing" textLength="170" x="100.5" y="148.7139">Consulter dossiers en attente</text><polygon fill="#181818" points="434.5,179.9219,444.5,183.9219,434.5,187.9219,438.5,183.9219" style="stroke:#181818;stroke-width:1.0;"/><line style="stroke:#181818;stroke-width:1.0;" x1="287.5" x2="440.5" y1="183.9219" y2="183.9219"/><text fill="#000000" font-family="sans-serif" font-size="13" lengthAdjust="spacing" textLength="135" x="294.5" y="179.0654">getDossiersEnAttente()</text><polygon fill="#181818" points="574.5,210.2734,584.5,214.2734,574.5,218.2734,578.5,214.2734" style="stroke:#181818;stroke-width:1.0;"/><line style="stroke:#181818;stroke-width:1.0;" x1="446.5" x2="580.5" y1="214.2734" y2="214.2734"/><text fill="#000000" font-family="sans-serif" font-size="13" lengthAdjust="spacing" textLength="74" x="453.5" y="209.417">Lire dossiers</text><polygon fill="#181818" points="457.5,240.625,447.5,244.625,457.5,248.625,453.5,244.625" style="stroke:#181818;stroke-width:1.0;"/><line style="stroke:#181818;stroke-width:1.0;stroke-dasharray:2.0,2.0;" x1="451.5" x2="585.5" y1="244.625" y2="244.625"/><text fill="#000000" font-family="sans-serif" font-size="13" lengthAdjust="spacing" textLength="81" x="463.5" y="239.7686">Liste dossiers</text><polygon fill="#181818" points="298.5,270.9766,288.5,274.9766,298.5,278.9766,294.5,274.9766" style="stroke:#181818;stroke-width:1.0;"/><line style="stroke:#181818;stroke-width:1.0;stroke-dasharray:2.0,2.0;" x1="292.5" x2="445.5" y1="274.9766" y2="274.9766"/><text fill="#000000" font-family="sans-serif" font-size="13" lengthAdjust="spacing" textLength="81" x="304.5" y="270.1201">Liste dossiers</text><polygon fill="#181818" points="104.5,301.3281,94.5,305.3281,104.5,309.3281,100.5,305.3281" style="stroke:#181818;stroke-width:1.0;"/><line style="stroke:#181818;stroke-width:1.0;stroke-dasharray:2.0,2.0;" x1="98.5" x2="286.5" y1="305.3281" y2="305.3281"/><text fill="#000000" font-family="sans-serif" font-size="13" lengthAdjust="spacing" textLength="96" x="110.5" y="300.4717">Afficher dossiers</text><polygon fill="#181818" points="275.5,331.6797,285.5,335.6797,275.5,339.6797,279.5,335.6797" style="stroke:#181818;stroke-width:1.0;"/><line style="stroke:#181818;stroke-width:1.0;" x1="93.5" x2="281.5" y1="335.6797" y2="335.6797"/><text fill="#000000" font-family="sans-serif" font-size="13" lengthAdjust="spacing" textLength="154" x="100.5" y="330.8232">Consulter d&#233;tail du dossier</text><polygon fill="#181818" points="434.5,362.0313,444.5,366.0313,434.5,370.0313,438.5,366.0313" style="stroke:#181818;stroke-width:1.0;"/><line style="stroke:#181818;stroke-width:1.0;" x1="287.5" x2="440.5" y1="366.0313" y2="366.0313"/><text fill="#000000" font-family="sans-serif" font-size="13" lengthAdjust="spacing" textLength="80" x="294.5" y="361.1748">getDossier(id)</text><polygon fill="#181818" points="574.5,392.3828,584.5,396.3828,574.5,400.3828,578.5,396.3828" style="stroke:#181818;stroke-width:1.0;"/><line style="stroke:#181818;stroke-width:1.0;" x1="446.5" x2="580.5" y1="396.3828" y2="396.3828"/><text fill="#000000" font-family="sans-serif" font-size="13" lengthAdjust="spacing" textLength="67" x="453.5" y="391.5264">Lire dossier</text><polygon fill="#181818" points="457.5,422.7344,447.5,426.7344,457.5,430.7344,453.5,426.7344" style="stroke:#181818;stroke-width:1.0;"/><line style="stroke:#181818;stroke-width:1.0;stroke-dasharray:2.0,2.0;" x1="451.5" x2="585.5" y1="426.7344" y2="426.7344"/><text fill="#000000" font-family="sans-serif" font-size="13" lengthAdjust="spacing" textLength="44" x="463.5" y="421.8779">Dossier</text><polygon fill="#181818" points="298.5,453.0859,288.5,457.0859,298.5,461.0859,294.5,457.0859" style="stroke:#181818;stroke-width:1.0;"/><line style="stroke:#181818;stroke-width:1.0;stroke-dasharray:2.0,2.0;" x1="292.5" x2="445.5" y1="457.0859" y2="457.0859"/><text fill="#000000" font-family="sans-serif" font-size="13" lengthAdjust="spacing" textLength="44" x="304.5" y="452.2295">Dossier</text><polygon fill="#181818" points="104.5,483.4375,94.5,487.4375,104.5,491.4375,100.5,487.4375" style="stroke:#181818;stroke-width:1.0;"/><line style="stroke:#181818;stroke-width:1.0;stroke-dasharray:2.0,2.0;" x1="98.5" x2="286.5" y1="487.4375" y2="487.4375"/><text fill="#000000" font-family="sans-serif" font-size="13" lengthAdjust="spacing" textLength="78" x="110.5" y="482.5811">Afficher d&#233;tail</text><path d="M10,502.4375 L71,502.4375 L71,510.7891 L61,520.7891 L10,520.7891 L10,502.4375 " fill="#EEEEEE" style="stroke:#000000;stroke-width:1.5;"/><rect fill="none" height="519.8125" style="stroke:#000000;stroke-width:1.5;" width="789" x="10" y="502.4375"/><text fill="#000000" font-family="sans-serif" font-size="13" font-weight="bold" lengthAdjust="spacing" textLength="16" x="25" y="516.9326">alt</text><text fill="#000000" font-family="sans-serif" font-size="11" font-weight="bold" lengthAdjust="spacing" textLength="86" x="86" y="515.8564">[Dossier valid&#233;]</text><polygon fill="#181818" points="275.5,539.1406,285.5,543.1406,275.5,547.1406,279.5,543.1406" style="stroke:#181818;stroke-width:1.0;"/><line style="stroke:#181818;stroke-width:1.0;" x1="93.5" x2="281.5" y1="543.1406" y2="543.1406"/><text fill="#000000" font-family="sans-serif" font-size="13" lengthAdjust="spacing" textLength="86" x="100.5" y="538.2842">Valider dossier</text><polygon fill="#181818" points="434.5,569.4922,444.5,573.4922,434.5,577.4922,438.5,573.4922" style="stroke:#181818;stroke-width:1.0;"/><line style="stroke:#181818;stroke-width:1.0;" x1="287.5" x2="440.5" y1="573.4922" y2="573.4922"/><text fill="#000000" font-family="sans-serif" font-size="13" lengthAdjust="spacing" textLength="98" x="294.5" y="568.6357">validerDossier(id)</text><polygon fill="#181818" points="574.5,599.8438,584.5,603.8438,574.5,607.8438,578.5,603.8438" style="stroke:#181818;stroke-width:1.0;"/><line style="stroke:#181818;stroke-width:1.0;" x1="446.5" x2="580.5" y1="603.8438" y2="603.8438"/><text fill="#000000" font-family="sans-serif" font-size="13" lengthAdjust="spacing" textLength="116" x="453.5" y="598.9873">MAJ &#233;tat = Accept&#233;</text><polygon fill="#181818" points="457.5,630.1953,447.5,634.1953,457.5,638.1953,453.5,634.1953" style="stroke:#181818;stroke-width:1.0;"/><line style="stroke:#181818;stroke-width:1.0;stroke-dasharray:2.0,2.0;" x1="451.5" x2="585.5" y1="634.1953" y2="634.1953"/><text fill="#000000" font-family="sans-serif" font-size="13" lengthAdjust="spacing" textLength="72" x="463.5" y="629.3389">Confirmation</text><polygon fill="#181818" points="710,660.5469,720,664.5469,710,668.5469,714,664.5469" style="stroke:#181818;stroke-width:1.0;"/><line style="stroke:#181818;stroke-width:1.0;" x1="446.5" x2="716" y1="664.5469" y2="664.5469"/><text fill="#000000" font-family="sans-serif" font-size="13" lengthAdjust="spacing" textLength="125" x="453.5" y="659.6904">notifierAcceptation(id)</text><polygon fill="#181818" points="457.5,690.8984,447.5,694.8984,457.5,698.8984,453.5,694.8984" style="stroke:#181818;stroke-width:1.0;"/><line style="stroke:#181818;stroke-width:1.0;stroke-dasharray:2.0,2.0;" x1="451.5" x2="721" y1="694.8984" y2="694.8984"/><text fill="#000000" font-family="sans-serif" font-size="13" lengthAdjust="spacing" textLength="115" x="463.5" y="690.042">Notification envoy&#233;e</text><polygon fill="#181818" points="298.5,721.25,288.5,725.25,298.5,729.25,294.5,725.25" style="stroke:#181818;stroke-width:1.0;"/><line style="stroke:#181818;stroke-width:1.0;stroke-dasharray:2.0,2.0;" x1="292.5" x2="445.5" y1="725.25" y2="725.25"/><text fill="#000000" font-family="sans-serif" font-size="13" lengthAdjust="spacing" textLength="44" x="304.5" y="720.3936">Succ&#232;s</text><polygon fill="#181818" points="104.5,751.6016,94.5,755.6016,104.5,759.6016,100.5,755.6016" style="stroke:#181818;stroke-width:1.0;"/><line style="stroke:#181818;stroke-width:1.0;stroke-dasharray:2.0,2.0;" x1="98.5" x2="286.5" y1="755.6016" y2="755.6016"/><text fill="#000000" font-family="sans-serif" font-size="13" lengthAdjust="spacing" textLength="129" x="110.5" y="750.7451">Confirmation validation</text><line style="stroke:#000000;stroke-width:1.0;stroke-dasharray:2.0,2.0;" x1="10" x2="799" y1="764.6016" y2="764.6016"/><text fill="#000000" font-family="sans-serif" font-size="11" font-weight="bold" lengthAdjust="spacing" textLength="91" x="15" y="776.0205">[Dossier refus&#233;]</text><polygon fill="#181818" points="275.5,797.7891,285.5,801.7891,275.5,805.7891,279.5,801.7891" style="stroke:#181818;stroke-width:1.0;"/><line style="stroke:#181818;stroke-width:1.0;" x1="93.5" x2="281.5" y1="801.7891" y2="801.7891"/><text fill="#000000" font-family="sans-serif" font-size="13" lengthAdjust="spacing" textLength="90" x="100.5" y="796.9326">Refuser dossier</text><polygon fill="#181818" points="434.5,828.1406,444.5,832.1406,434.5,836.1406,438.5,832.1406" style="stroke:#181818;stroke-width:1.0;"/><line style="stroke:#181818;stroke-width:1.0;" x1="287.5" x2="440.5" y1="832.1406" y2="832.1406"/><text fill="#000000" font-family="sans-serif" font-size="13" lengthAdjust="spacing" textLength="101" x="294.5" y="827.2842">refuserDossier(id)</text><polygon fill="#181818" points="574.5,858.4922,584.5,862.4922,574.5,866.4922,578.5,862.4922" style="stroke:#181818;stroke-width:1.0;"/><line style="stroke:#181818;stroke-width:1.0;" x1="446.5" x2="580.5" y1="862.4922" y2="862.4922"/><text fill="#000000" font-family="sans-serif" font-size="13" lengthAdjust="spacing" textLength="108" x="453.5" y="857.6357">MAJ &#233;tat = Refus&#233;</text><polygon fill="#181818" points="457.5,888.8438,447.5,892.8438,457.5,896.8438,453.5,892.8438" style="stroke:#181818;stroke-width:1.0;"/><line style="stroke:#181818;stroke-width:1.0;stroke-dasharray:2.0,2.0;" x1="451.5" x2="585.5" y1="892.8438" y2="892.8438"/><text fill="#000000" font-family="sans-serif" font-size="13" lengthAdjust="spacing" textLength="72" x="463.5" y="887.9873">Confirmation</text><polygon fill="#181818" points="710,919.1953,720,923.1953,710,927.1953,714,923.1953" style="stroke:#181818;stroke-width:1.0;"/><line style="stroke:#181818;stroke-width:1.0;" x1="446.5" x2="716" y1="923.1953" y2="923.1953"/><text fill="#000000" font-family="sans-serif" font-size="13" lengthAdjust="spacing" textLength="89" x="453.5" y="918.3389">notifierRefus(id)</text><polygon fill="#181818" points="457.5,949.5469,447.5,953.5469,457.5,957.5469,453.5,953.5469" style="stroke:#181818;stroke-width:1.0;"/><line style="stroke:#181818;stroke-width:1.0;stroke-dasharray:2.0,2.0;" x1="451.5" x2="721" y1="953.5469" y2="953.5469"/><text fill="#000000" font-family="sans-serif" font-size="13" lengthAdjust="spacing" textLength="115" x="463.5" y="948.6904">Notification envoy&#233;e</text><polygon fill="#181818" points="298.5,979.8984,288.5,983.8984,298.5,987.8984,294.5,983.8984" style="stroke:#181818;stroke-width:1.0;"/><line style="stroke:#181818;stroke-width:1.0;stroke-dasharray:2.0,2.0;" x1="292.5" x2="445.5" y1="983.8984" y2="983.8984"/><text fill="#000000" font-family="sans-serif" font-size="13" lengthAdjust="spacing" textLength="44" x="304.5" y="979.042">Succ&#232;s</text><polygon fill="#181818" points="104.5,1010.25,94.5,1014.25,104.5,1018.25,100.5,1014.25" style="stroke:#181818;stroke-width:1.0;"/><line style="stroke:#181818;stroke-width:1.0;stroke-dasharray:2.0,2.0;" x1="98.5" x2="286.5" y1="1014.25" y2="1014.25"/><text fill="#000000" font-family="sans-serif" font-size="13" lengthAdjust="spacing" textLength="104" x="110.5" y="1009.3936">Confirmation refus</text><!--SRC=[pLJ1QXin4BthAmPVx1nCxe4MrdO32MaFCJHdMHgd0x9s8saD_QFwE_R7EfBMZfAibxGGo68MBBqtUk-DPWC5Wx3k3ayjMeMmX3dyb8Qq35HRk8HxtBOUzBIre6ll2Hqqqe6PLdf75cRBw-M545A5si4ah-bfTmXoOyXxtA4D4v0UqfPWQY15ZRI1qKrZIEM37d03N2f3c-ObS8rkJopkndhbg8c412p-zn31kkL6UeJ98hur_sfhkmFwn5WjXYl_g0DjUoq9M2uSQujiR_urAeGhMDRMjoPm8dqo7j22384zeuWOXhxLoCn73AkUyirMcJ2x40DOhh1QCEEE79wE4RmqFrVxZdmee4CrJmvUOPFak9byNa6rvGX-5Vx68eWz9mEwFQBVcS2CzBkTZnhlwuqxNfNQ1grc7tobJJYYOHydeZi8uETL0cbOdYFAa17Z-umlpKVAI03Vgrk8eW9yWKefR4AlP2mCRioMt2xTtv431guvasrQHPTFIvideKECiofACC_6llxDatXMpYdJTQjKzyS_PraqgZIMmymUqV2u7_lbuaThk5_fU_OF_N8P_v_zkY-4V7Yxqc6Vir4fHO5MYxy0]--></g></svg>