<?xml version="1.0" encoding="us-ascii" standalone="no"?><svg xmlns="http://www.w3.org/2000/svg" xmlns:xlink="http://www.w3.org/1999/xlink" contentStyleType="text/css" height="366px" preserveAspectRatio="none" style="width:679px;height:366px;background:#FFFFFF;" version="1.1" viewBox="0 0 679 366" width="679px" zoomAndPan="magnify"><defs/><g><line style="stroke:#181818;stroke-width:0.5;stroke-dasharray:5.0,5.0;" x1="36" x2="36" y1="82.6094" y2="284.7188"/><line style="stroke:#181818;stroke-width:0.5;stroke-dasharray:5.0,5.0;" x1="237.5" x2="237.5" y1="82.6094" y2="284.7188"/><line style="stroke:#181818;stroke-width:0.5;stroke-dasharray:5.0,5.0;" x1="424" x2="424" y1="82.6094" y2="284.7188"/><line style="stroke:#181818;stroke-width:0.5;stroke-dasharray:5.0,5.0;" x1="610" x2="610" y1="82.6094" y2="284.7188"/><text fill="#000000" font-family="sans-serif" font-size="14" lengthAdjust="spacing" textLength="57" x="5" y="79.5332">Candidat</text><ellipse cx="36.5" cy="13.5" fill="#E2E2F0" rx="8" ry="8" style="stroke:#181818;stroke-width:0.5;"/><path d="M36.5,21.5 L36.5,48.5 M23.5,29.5 L49.5,29.5 M36.5,48.5 L23.5,63.5 M36.5,48.5 L49.5,63.5 " fill="none" style="stroke:#181818;stroke-width:0.5;"/><text fill="#000000" font-family="sans-serif" font-size="14" lengthAdjust="spacing" textLength="57" x="5" y="298.252">Candidat</text><ellipse cx="36.5" cy="309.8281" fill="#E2E2F0" rx="8" ry="8" style="stroke:#181818;stroke-width:0.5;"/><path d="M36.5,317.8281 L36.5,344.8281 M23.5,325.8281 L49.5,325.8281 M36.5,344.8281 L23.5,359.8281 M36.5,344.8281 L49.5,359.8281 " fill="none" style="stroke:#181818;stroke-width:0.5;"/><rect fill="#E2E2F0" height="31.6094" rx="2.5" ry="2.5" style="stroke:#181818;stroke-width:0.5;" width="102" x="186.5" y="50"/><text fill="#000000" font-family="sans-serif" font-size="14" lengthAdjust="spacing" textLength="88" x="193.5" y="71.5332">Interface Web</text><rect fill="#E2E2F0" height="31.6094" rx="2.5" ry="2.5" style="stroke:#181818;stroke-width:0.5;" width="102" x="186.5" y="283.7188"/><text fill="#000000" font-family="sans-serif" font-size="14" lengthAdjust="spacing" textLength="88" x="193.5" y="305.252">Interface Web</text><rect fill="#E2E2F0" height="31.6094" rx="2.5" ry="2.5" style="stroke:#181818;stroke-width:0.5;" width="101" x="374" y="50"/><text fill="#000000" font-family="sans-serif" font-size="14" lengthAdjust="spacing" textLength="87" x="381" y="71.5332">Syst&#232;me CFC</text><rect fill="#E2E2F0" height="31.6094" rx="2.5" ry="2.5" style="stroke:#181818;stroke-width:0.5;" width="101" x="374" y="283.7188"/><text fill="#000000" font-family="sans-serif" font-size="14" lengthAdjust="spacing" textLength="87" x="381" y="305.252">Syst&#232;me CFC</text><rect fill="#E2E2F0" height="31.6094" rx="2.5" ry="2.5" style="stroke:#181818;stroke-width:0.5;" width="125" x="548" y="50"/><text fill="#000000" font-family="sans-serif" font-size="14" lengthAdjust="spacing" textLength="111" x="555" y="71.5332">Base de donn&#233;es</text><rect fill="#E2E2F0" height="31.6094" rx="2.5" ry="2.5" style="stroke:#181818;stroke-width:0.5;" width="125" x="548" y="283.7188"/><text fill="#000000" font-family="sans-serif" font-size="14" lengthAdjust="spacing" textLength="111" x="555" y="305.252">Base de donn&#233;es</text><polygon fill="#181818" points="225.5,110.9609,235.5,114.9609,225.5,118.9609,229.5,114.9609" style="stroke:#181818;stroke-width:1.0;"/><line style="stroke:#181818;stroke-width:1.0;" x1="36.5" x2="231.5" y1="114.9609" y2="114.9609"/><text fill="#000000" font-family="sans-serif" font-size="13" lengthAdjust="spacing" textLength="177" x="43.5" y="110.1045">Remplir formulaire d&#8217;inscription</text><polygon fill="#181818" points="412.5,141.3125,422.5,145.3125,412.5,149.3125,416.5,145.3125" style="stroke:#181818;stroke-width:1.0;"/><line style="stroke:#181818;stroke-width:1.0;" x1="237.5" x2="418.5" y1="145.3125" y2="145.3125"/><text fill="#000000" font-family="sans-serif" font-size="13" lengthAdjust="spacing" textLength="163" x="244.5" y="140.4561">Envoyer donn&#233;es du dossier</text><polygon fill="#181818" points="598.5,171.6641,608.5,175.6641,598.5,179.6641,602.5,175.6641" style="stroke:#181818;stroke-width:1.0;"/><line style="stroke:#181818;stroke-width:1.0;" x1="424.5" x2="604.5" y1="175.6641" y2="175.6641"/><text fill="#000000" font-family="sans-serif" font-size="13" lengthAdjust="spacing" textLength="109" x="431.5" y="170.8076">Enregistrer dossier</text><polygon fill="#181818" points="435.5,202.0156,425.5,206.0156,435.5,210.0156,431.5,206.0156" style="stroke:#181818;stroke-width:1.0;"/><line style="stroke:#181818;stroke-width:1.0;stroke-dasharray:2.0,2.0;" x1="429.5" x2="609.5" y1="206.0156" y2="206.0156"/><text fill="#000000" font-family="sans-serif" font-size="13" lengthAdjust="spacing" textLength="162" x="441.5" y="201.1592">Confirmation enregistrement</text><polygon fill="#181818" points="248.5,232.3672,238.5,236.3672,248.5,240.3672,244.5,236.3672" style="stroke:#181818;stroke-width:1.0;"/><line style="stroke:#181818;stroke-width:1.0;stroke-dasharray:2.0,2.0;" x1="242.5" x2="423.5" y1="236.3672" y2="236.3672"/><text fill="#000000" font-family="sans-serif" font-size="13" lengthAdjust="spacing" textLength="142" x="254.5" y="231.5107">Confirmation soumission</text><polygon fill="#181818" points="47.5,262.7188,37.5,266.7188,47.5,270.7188,43.5,266.7188" style="stroke:#181818;stroke-width:1.0;"/><line style="stroke:#181818;stroke-width:1.0;stroke-dasharray:2.0,2.0;" x1="41.5" x2="236.5" y1="266.7188" y2="266.7188"/><text fill="#000000" font-family="sans-serif" font-size="13" lengthAdjust="spacing" textLength="166" x="53.5" y="261.8623">Dossier soumis avec succ&#232;s</text><!--SRC=[LSynRiCm30NGNQSWikS26JhORe6iBOhCh4mN12BA8EK0sNgDtY0zXs_IavIn7QC6D0ZIu_yInf8LQfIMMooXHoqSkKSfi3jA8Uqm4fpeOmTey7xSYhUhbV6M2EgNUWBt0qfRLA4HjBwooFX3Di6c2k7H2lidJuO3l5BgpwpGPKt36LbzwFVhcyMYSbyuIt3dUgxnYMUvv2lfcWtju7ip9WqBSjvK4rNwP2iwyPdunVv_N9sbOqruhm9Q1n99MUCUZzrOoqDYprnUw6Rzt06QkMr1W1UAO4ECuyt-0000]--></g></svg>