<?xml version="1.0" encoding="us-ascii" standalone="no"?><svg xmlns="http://www.w3.org/2000/svg" xmlns:xlink="http://www.w3.org/1999/xlink" contentStyleType="text/css" height="1010px" preserveAspectRatio="none" style="width:451px;height:1010px;background:#FFFFFF;" version="1.1" viewBox="0 0 451 1010" width="451px" zoomAndPan="magnify"><defs/><g><!--cluster Syst?me CFC--><g id="cluster_Syst&#232;me CFC"><rect fill="none" height="997" rx="2.5" ry="2.5" style="stroke:#181818;stroke-width:1.0;" width="264" x="181" y="7"/><text fill="#000000" font-family="sans-serif" font-size="14" font-weight="bold" lengthAdjust="spacing" textLength="92" x="267" y="23.5332">Syst&#232;me CFC</text></g><g id="elem_G&#233;rer &#233;tablissements"><ellipse cx="313.1756" cy="63.1351" fill="#F1F1F1" rx="88.6756" ry="20.1351" style="stroke:#181818;stroke-width:0.5;"/><text fill="#000000" font-family="sans-serif" font-size="14" lengthAdjust="spacing" textLength="135" x="245.6756" y="66.8636">G&#233;rer &#233;tablissements</text></g><g id="elem_G&#233;rer Admins Etablissement"><ellipse cx="313.1585" cy="142.0317" fill="#F1F1F1" rx="108.1585" ry="24.0317" style="stroke:#181818;stroke-width:0.5;"/><text fill="#000000" font-family="sans-serif" font-size="14" lengthAdjust="spacing" textLength="179" x="223.6585" y="145.7602">G&#233;rer Admins Etablissement</text></g><g id="elem_Configurer param&#232;tres globaux"><ellipse cx="312.9339" cy="227.0868" fill="#F1F1F1" rx="115.9339" ry="25.5868" style="stroke:#181818;stroke-width:0.5;"/><text fill="#000000" font-family="sans-serif" font-size="14" lengthAdjust="spacing" textLength="196" x="214.9339" y="230.8153">Configurer param&#232;tres globaux</text></g><g id="elem_Consulter reporting global"><ellipse cx="312.8975" cy="310.1795" fill="#F1F1F1" rx="101.3975" ry="22.6795" style="stroke:#181818;stroke-width:0.5;"/><text fill="#000000" font-family="sans-serif" font-size="14" lengthAdjust="spacing" textLength="164" x="230.8975" y="313.908">Consulter reporting global</text></g><g id="elem_Valider Dossier"><ellipse cx="313.0109" cy="385.0022" fill="#F1F1F1" rx="73.0109" ry="17.0022" style="stroke:#181818;stroke-width:0.5;"/><text fill="#000000" font-family="sans-serif" font-size="14" lengthAdjust="spacing" textLength="96" x="262.0109" y="389.5188">Valider Dossier</text></g><g id="elem_Refuser Dossier"><ellipse cx="313.2256" cy="454.9451" fill="#F1F1F1" rx="75.2256" ry="17.4451" style="stroke:#181818;stroke-width:0.5;"/><text fill="#000000" font-family="sans-serif" font-size="14" lengthAdjust="spacing" textLength="102" x="259.2256" y="459.4617">Refuser Dossier</text></g><g id="elem_D&#233;finir dates inscription"><ellipse cx="312.813" cy="528.7626" fill="#F1F1F1" rx="94.313" ry="21.2626" style="stroke:#181818;stroke-width:0.5;"/><text fill="#000000" font-family="sans-serif" font-size="14" lengthAdjust="spacing" textLength="148" x="238.813" y="532.4911">D&#233;finir dates inscription</text></g><g id="elem_Ouvrir inscriptions"><ellipse cx="312.8789" cy="603.8758" fill="#F1F1F1" rx="79.8789" ry="18.3758" style="stroke:#181818;stroke-width:0.5;"/><text fill="#000000" font-family="sans-serif" font-size="14" lengthAdjust="spacing" textLength="114" x="254.8373" y="607.9024">Ouvrir inscriptions</text></g><g id="elem_Fermer inscriptions"><ellipse cx="312.7516" cy="676.9503" fill="#F1F1F1" rx="82.7516" ry="18.9503" style="stroke:#181818;stroke-width:0.5;"/><text fill="#000000" font-family="sans-serif" font-size="14" lengthAdjust="spacing" textLength="121" x="252.2516" y="680.6788">Fermer inscriptions</text></g><g id="elem_Consulter catalogue"><ellipse cx="312.7698" cy="750.954" fill="#F1F1F1" rx="85.2698" ry="19.454" style="stroke:#181818;stroke-width:0.5;"/><text fill="#000000" font-family="sans-serif" font-size="14" lengthAdjust="spacing" textLength="127" x="249.2698" y="754.6825">Consulter catalogue</text></g><g id="elem_Se pr&#233;inscrire"><ellipse cx="313.1531" cy="821.9306" fill="#F1F1F1" rx="70.1531" ry="16.4306" style="stroke:#181818;stroke-width:0.5;"/><text fill="#000000" font-family="sans-serif" font-size="14" lengthAdjust="spacing" textLength="88" x="266.1531" y="826.4472">Se pr&#233;inscrire</text></g><g id="elem_Soumettre dossier"><ellipse cx="312.7827" cy="891.9565" fill="#F1F1F1" rx="80.2827" ry="18.4565" style="stroke:#181818;stroke-width:0.5;"/><text fill="#000000" font-family="sans-serif" font-size="14" lengthAdjust="spacing" textLength="115" x="254.4192" y="895.9341">Soumettre dossier</text></g><g id="elem_Suivre statut inscription"><ellipse cx="312.8753" cy="967.1751" fill="#F1F1F1" rx="93.8753" ry="21.1751" style="stroke:#181818;stroke-width:0.5;"/><text fill="#000000" font-family="sans-serif" font-size="14" lengthAdjust="spacing" textLength="147" x="239.3753" y="970.9036">Suivre statut inscription</text></g><!--entity SA--><g id="elem_SA"><ellipse cx="71.5" cy="154.5" fill="#F1F1F1" rx="8" ry="8" style="stroke:#181818;stroke-width:0.5;"/><path d="M71.5,162.5 L71.5,189.5 M58.5,170.5 L84.5,170.5 M71.5,189.5 L58.5,204.5 M71.5,189.5 L84.5,204.5 " fill="none" style="stroke:#181818;stroke-width:0.5;"/><text fill="#000000" font-family="sans-serif" font-size="14" lengthAdjust="spacing" textLength="81" x="31" y="220.5332">Super Admin</text></g><!--entity AE--><g id="elem_AE"><ellipse cx="71.5" cy="389.5" fill="#F1F1F1" rx="8" ry="8" style="stroke:#181818;stroke-width:0.5;"/><path d="M71.5,397.5 L71.5,424.5 M58.5,405.5 L84.5,405.5 M71.5,424.5 L58.5,439.5 M71.5,424.5 L84.5,439.5 " fill="none" style="stroke:#181818;stroke-width:0.5;"/><text fill="#000000" font-family="sans-serif" font-size="14" lengthAdjust="spacing" textLength="131" x="6" y="455.5332">Admin Etablissement</text></g><!--entity CO--><g id="elem_CO"><ellipse cx="71.5" cy="573.5" fill="#F1F1F1" rx="8" ry="8" style="stroke:#181818;stroke-width:0.5;"/><path d="M71.5,581.5 L71.5,608.5 M58.5,589.5 L84.5,589.5 M71.5,608.5 L58.5,623.5 M71.5,608.5 L84.5,623.5 " fill="none" style="stroke:#181818;stroke-width:0.5;"/><text fill="#000000" font-family="sans-serif" font-size="14" lengthAdjust="spacing" textLength="83" x="30" y="639.5332">Coordinateur</text></g><!--entity CA--><g id="elem_CA"><ellipse cx="71.5" cy="826.5" fill="#F1F1F1" rx="8" ry="8" style="stroke:#181818;stroke-width:0.5;"/><path d="M71.5,834.5 L71.5,861.5 M58.5,842.5 L84.5,842.5 M71.5,861.5 L58.5,876.5 M71.5,861.5 L84.5,876.5 " fill="none" style="stroke:#181818;stroke-width:0.5;"/><text fill="#000000" font-family="sans-serif" font-size="14" lengthAdjust="spacing" textLength="57" x="43" y="892.5332">Candidat</text></g><!--link SA to G?rer ?tablissements--><g id="link_SA_G&#233;rer &#233;tablissements"><path d="M110.59,145.81 C128.24,129.59 150.31,111.84 173,100 C194.36,88.85 219.37,80.85 242.24,75.2 " fill="none" id="SA-G&#233;rer &#233;tablissements" style="stroke:#181818;stroke-width:1.0;"/></g><!--link SA to G?rer Admins Etablissement--><g id="link_SA_G&#233;rer Admins Etablissement"><path d="M112.05,177.9 C143.54,172.25 188.72,164.13 228.17,157.05 " fill="none" id="SA-G&#233;rer Admins Etablissement" style="stroke:#181818;stroke-width:1.0;"/></g><!--link SA to Configurer param?tres globaux--><g id="link_SA_Configurer param&#232;tres globaux"><path d="M112.05,191.94 C141.88,197.17 183.99,204.55 221.88,211.2 " fill="none" id="SA-Configurer param&#232;tres globaux" style="stroke:#181818;stroke-width:1.0;"/></g><!--link SA to Consulter reporting global--><g id="link_SA_Consulter reporting global"><path d="M111.17,224.4 C128.77,240.47 150.63,258.04 173,270 C192.93,280.66 216.03,288.77 237.6,294.8 " fill="none" id="SA-Consulter reporting global" style="stroke:#181818;stroke-width:1.0;"/></g><!--link AE to Valider Dossier--><g id="link_AE_Valider Dossier"><path d="M137.31,410.53 C172.64,405.37 216.11,399.01 250.85,393.94 " fill="none" id="AE-Valider Dossier" style="stroke:#181818;stroke-width:1.0;"/></g><!--link AE to Refuser Dossier--><g id="link_AE_Refuser Dossier"><path d="M137.31,429.47 C171.95,434.53 214.41,440.74 248.79,445.76 " fill="none" id="AE-Refuser Dossier" style="stroke:#181818;stroke-width:1.0;"/></g><!--link CO to D?finir dates inscription--><g id="link_CO_D&#233;finir dates inscription"><path d="M113.35,588.63 C131.52,581.99 153.22,574.31 173,568 C198.19,559.96 226.23,551.93 250.48,545.26 " fill="none" id="CO-D&#233;finir dates inscription" style="stroke:#181818;stroke-width:1.0;"/></g><!--link CO to Ouvrir inscriptions--><g id="link_CO_Ouvrir inscriptions"><path d="M113.13,604 C145.83,604 192.77,604 232.83,604 " fill="none" id="CO-Ouvrir inscriptions" style="stroke:#181818;stroke-width:1.0;"/></g><!--link CO to Fermer inscriptions--><g id="link_CO_Fermer inscriptions"><path d="M113.31,619.5 C131.47,626.16 153.18,633.82 173,640 C200.06,648.43 230.45,656.66 255.89,663.21 " fill="none" id="CO-Fermer inscriptions" style="stroke:#181818;stroke-width:1.0;"/></g><!--link CA to Consulter catalogue--><g id="link_CA_Consulter catalogue"><path d="M100.38,833.98 C119.73,819.02 146.66,800.11 173,788 C196.26,777.31 223.17,769.25 247.09,763.42 " fill="none" id="CA-Consulter catalogue" style="stroke:#181818;stroke-width:1.0;"/></g><!--link CA to Se pr?inscrire--><g id="link_CA_Se pr&#233;inscrire"><path d="M100.44,852.92 C137.58,847.49 204.17,837.76 252.75,830.66 " fill="none" id="CA-Se pr&#233;inscrire" style="stroke:#181818;stroke-width:1.0;"/></g><!--link CA to Soumettre dossier--><g id="link_CA_Soumettre dossier"><path d="M100.44,861.08 C135.55,866.21 196.96,875.19 244.61,882.15 " fill="none" id="CA-Soumettre dossier" style="stroke:#181818;stroke-width:1.0;"/></g><!--link CA to Suivre statut inscription--><g id="link_CA_Suivre statut inscription"><path d="M100.33,880.61 C119.65,895.97 146.57,915.42 173,928 C195.06,938.5 220.48,946.66 243.5,952.74 " fill="none" id="CA-Suivre statut inscription" style="stroke:#181818;stroke-width:1.0;"/></g><!--SRC=[PP11ReCm44Ntd6AKLLda4CWXNKPgfEudCD2HZ8t6uwXLrVk4St2n6g8KIBT-R_I_lwL6GJq8jnyADGjLojvb6LRg1NRds9D0KNViTe01piM3p6zGAbuiXq0TEPsDedmOndkfsQ5Ib1cPqnz2LtEDzmjJPDcKYwwrb2A_WewtZi0SpGw-imnIAkptyF8w3fBQZCCwDEJ_XBbQs7PRMSQxXjiucJqATkDDXGAqrbymVcx54AqcJwZtekpQksNpgLLHpjOxMgwJS_0XC4c-a3TgObYJXCnfHeTnQDYnG1eXPQUwbN0_JPylqYbU9Iah65RqIDBHCvtmS_aA5Qrl8-KBFHFqCWxtOzaG7plIj0ZKouSUBF8rWQ2eKRUbVtu1]--></g></svg>