<?xml version="1.0" encoding="us-ascii" standalone="no"?><svg xmlns="http://www.w3.org/2000/svg" xmlns:xlink="http://www.w3.org/1999/xlink" contentStyleType="text/css" height="812px" preserveAspectRatio="none" style="width:435px;height:812px;background:#FFFFFF;" version="1.1" viewBox="0 0 435 812" width="435px" zoomAndPan="magnify"><defs/><g><text fill="#000000" font-family="sans-serif" font-size="14" font-weight="bold" lengthAdjust="spacing" textLength="406" x="10" y="24.5332">Diagrammes d'&#233;tats - Centre de Formation Continue (CFC)</text><path d="M30.855,173.6094 L122.355,173.6094 A12.5,12.5 0 0 1 134.855,186.1094 L134.855,218.8281 L18.355,218.8281 L18.355,186.1094 A12.5,12.5 0 0 1 30.855,173.6094 " fill="#F1F1F1" style="stroke:#F1F1F1;stroke-width:1.0;"/><rect fill="none" height="505.2188" rx="12.5" ry="12.5" style="stroke:#181818;stroke-width:0.5;" width="116.5" x="18.355" y="173.6094"/><line style="stroke:#181818;stroke-width:0.5;" x1="18.355" x2="134.855" y1="218.8281" y2="218.8281"/><text fill="#000000" font-family="sans-serif" font-size="14" lengthAdjust="spacing" textLength="64" x="44.605" y="193.1426">Formation</text><text fill="#000000" font-family="sans-serif" font-size="14" lengthAdjust="spacing" textLength="55" x="49.105" y="210.752">Lifecycle</text><ellipse cx="67.855" cy="239.8281" fill="#222222" rx="10" ry="10" style="stroke:#222222;stroke-width:1.0;"/><g id="FormationLifecycle.Brouillon"><rect fill="#F1F1F1" height="50" rx="12.5" ry="12.5" style="stroke:#181818;stroke-width:0.5;" width="75" x="30.355" y="319.8281"/><line style="stroke:#181818;stroke-width:0.5;" x1="30.355" x2="105.355" y1="347.4375" y2="347.4375"/><text fill="#000000" font-family="sans-serif" font-size="14" lengthAdjust="spacing" textLength="55" x="40.355" y="339.3613">Brouillon</text></g><g id="FormationLifecycle.Publiee"><rect fill="#F1F1F1" height="50" rx="12.5" ry="12.5" style="stroke:#181818;stroke-width:0.5;" width="67" x="34.355" y="439.8281"/><line style="stroke:#181818;stroke-width:0.5;" x1="34.355" x2="101.355" y1="467.4375" y2="467.4375"/><text fill="#000000" font-family="sans-serif" font-size="14" lengthAdjust="spacing" textLength="47" x="44.355" y="459.3613">Publiee</text></g><g id="FormationLifecycle.Archivee"><rect fill="#F1F1F1" height="50" rx="12.5" ry="12.5" style="stroke:#181818;stroke-width:0.5;" width="75" x="30.355" y="559.8281"/><line style="stroke:#181818;stroke-width:0.5;" x1="30.355" x2="105.355" y1="587.4375" y2="587.4375"/><text fill="#000000" font-family="sans-serif" font-size="14" lengthAdjust="spacing" textLength="55" x="40.355" y="579.3613">Archivee</text></g><ellipse cx="67.855" cy="657.8281" fill="none" rx="11" ry="11" style="stroke:#222222;stroke-width:1.0;"/><ellipse cx="67.855" cy="657.8281" fill="#222222" rx="6" ry="6" style="stroke:#222222;stroke-width:1.0;"/><!--link *start*FormationLifecycle to Brouillon--><g id="link_*start*FormationLifecycle_Brouillon"><path d="M67.855,249.9681 C67.855,265.4281 67.855,291.2281 67.855,313.5081 " fill="none" id="*start*FormationLifecycle-to-Brouillon" style="stroke:#181818;stroke-width:1.0;"/><polygon fill="#181818" points="67.855,319.5081,71.855,310.5081,67.855,314.5081,63.855,310.5081,67.855,319.5081" style="stroke:#181818;stroke-width:1.0;"/><text fill="#000000" font-family="sans-serif" font-size="13" lengthAdjust="spacing" textLength="48" x="72.855" y="282.3232">Cr&#233;ation</text><text fill="#000000" font-family="sans-serif" font-size="13" lengthAdjust="spacing" textLength="56" x="68.855" y="298.6748">(Creation)</text></g><!--link Brouillon to Publiee--><g id="link_Brouillon_Publiee"><path d="M67.855,369.9881 C67.855,390.3581 67.855,413.3381 67.855,433.6981 " fill="none" id="Brouillon-to-Publiee" style="stroke:#181818;stroke-width:1.0;"/><polygon fill="#181818" points="67.855,439.6981,71.855,430.6981,67.855,434.6981,63.855,430.6981,67.855,439.6981" style="stroke:#181818;stroke-width:1.0;"/><text fill="#000000" font-family="sans-serif" font-size="13" lengthAdjust="spacing" textLength="40" x="74.355" y="402.3232">Publier</text><text fill="#000000" font-family="sans-serif" font-size="13" lengthAdjust="spacing" textLength="51" x="68.855" y="418.6748">(Publish)</text></g><!--link Publiee to Archivee--><g id="link_Publiee_Archivee"><path d="M67.855,489.9881 C67.855,510.3581 67.855,533.3381 67.855,553.6981 " fill="none" id="Publiee-to-Archivee" style="stroke:#181818;stroke-width:1.0;"/><polygon fill="#181818" points="67.855,559.6981,71.855,550.6981,67.855,554.6981,63.855,550.6981,67.855,559.6981" style="stroke:#181818;stroke-width:1.0;"/><text fill="#000000" font-family="sans-serif" font-size="13" lengthAdjust="spacing" textLength="46" x="70.855" y="522.3232">Archiver</text><text fill="#000000" font-family="sans-serif" font-size="13" lengthAdjust="spacing" textLength="50" x="68.855" y="538.6748">(Archive)</text></g><!--link Archivee to *end*FormationLifecycle--><g id="link_Archivee_*end*FormationLifecycle"><path d="M67.855,609.8681 C67.855,622.4181 67.855,631.1081 67.855,640.6781 " fill="none" id="Archivee-to-*end*FormationLifecycle" style="stroke:#181818;stroke-width:1.0;"/><polygon fill="#181818" points="67.855,646.6781,71.855,637.6781,67.855,641.6781,63.855,637.6781,67.855,646.6781" style="stroke:#181818;stroke-width:1.0;"/></g><path d="M182.855,45.6094 L409.145,45.6094 A12.5,12.5 0 0 1 421.645,58.1094 L421.645,90.8281 L170.355,90.8281 L170.355,58.1094 A12.5,12.5 0 0 1 182.855,45.6094 " fill="#F1F1F1" style="stroke:#F1F1F1;stroke-width:1.0;"/><rect fill="none" height="761.2188" rx="12.5" ry="12.5" style="stroke:#181818;stroke-width:0.5;" width="251.29" x="170.355" y="45.6094"/><line style="stroke:#181818;stroke-width:0.5;" x1="170.355" x2="421.645" y1="90.8281" y2="90.8281"/><text fill="#000000" font-family="sans-serif" font-size="14" lengthAdjust="spacing" textLength="64" x="264" y="65.1426">Inscription</text><text fill="#000000" font-family="sans-serif" font-size="14" lengthAdjust="spacing" textLength="55" x="268.5" y="82.752">Lifecycle</text><ellipse cx="283.645" cy="111.8281" fill="#222222" rx="10" ry="10" style="stroke:#222222;stroke-width:1.0;"/><g id="InscriptionLifecycle.Preinscription"><rect fill="#F1F1F1" height="50" rx="12.5" ry="12.5" style="stroke:#181818;stroke-width:0.5;" width="106" x="230.645" y="191.8281"/><line style="stroke:#181818;stroke-width:0.5;" x1="230.645" x2="336.645" y1="219.4375" y2="219.4375"/><text fill="#000000" font-family="sans-serif" font-size="14" lengthAdjust="spacing" textLength="86" x="240.645" y="211.3613">Preinscription</text></g><g id="InscriptionLifecycle.DossierSoumis"><rect fill="#F1F1F1" height="50" rx="12.5" ry="12.5" style="stroke:#181818;stroke-width:0.5;" width="114" x="226.645" y="311.8281"/><line style="stroke:#181818;stroke-width:0.5;" x1="226.645" x2="340.645" y1="339.4375" y2="339.4375"/><text fill="#000000" font-family="sans-serif" font-size="14" lengthAdjust="spacing" textLength="94" x="236.645" y="331.3613">DossierSoumis</text></g><g id="InscriptionLifecycle.EnValidation"><rect fill="#F1F1F1" height="50" rx="12.5" ry="12.5" style="stroke:#181818;stroke-width:0.5;" width="99" x="234.145" y="431.8281"/><line style="stroke:#181818;stroke-width:0.5;" x1="234.145" x2="333.145" y1="459.4375" y2="459.4375"/><text fill="#000000" font-family="sans-serif" font-size="14" lengthAdjust="spacing" textLength="79" x="244.145" y="451.3613">EnValidation</text></g><g id="InscriptionLifecycle.Acceptee"><rect fill="#F1F1F1" height="50" rx="12.5" ry="12.5" style="stroke:#181818;stroke-width:0.5;" width="79" x="185.145" y="551.8281"/><line style="stroke:#181818;stroke-width:0.5;" x1="185.145" x2="264.145" y1="579.4375" y2="579.4375"/><text fill="#000000" font-family="sans-serif" font-size="14" lengthAdjust="spacing" textLength="59" x="195.145" y="571.3613">Acceptee</text></g><g id="InscriptionLifecycle.Refusee"><rect fill="#F1F1F1" height="50" rx="12.5" ry="12.5" style="stroke:#181818;stroke-width:0.5;" width="73" x="306.145" y="619.8281"/><line style="stroke:#181818;stroke-width:0.5;" x1="306.145" x2="379.145" y1="647.4375" y2="647.4375"/><text fill="#000000" font-family="sans-serif" font-size="14" lengthAdjust="spacing" textLength="53" x="316.145" y="639.3613">Refusee</text></g><g id="InscriptionLifecycle.Inscrit"><rect fill="#F1F1F1" height="50" rx="12.5" ry="12.5" style="stroke:#181818;stroke-width:0.5;" width="57" x="211.145" y="687.8281"/><line style="stroke:#181818;stroke-width:0.5;" x1="211.145" x2="268.145" y1="715.4375" y2="715.4375"/><text fill="#000000" font-family="sans-serif" font-size="14" lengthAdjust="spacing" textLength="37" x="221.145" y="707.3613">Inscrit</text></g><ellipse cx="279.645" cy="785.8281" fill="none" rx="11" ry="11" style="stroke:#222222;stroke-width:1.0;"/><ellipse cx="279.645" cy="785.8281" fill="#222222" rx="6" ry="6" style="stroke:#222222;stroke-width:1.0;"/><!--link *start*InscriptionLifecycle to Preinscription--><g id="link_*start*InscriptionLifecycle_Preinscription"><path d="M283.645,121.9681 C283.645,137.4281 283.645,163.2281 283.645,185.5081 " fill="none" id="*start*InscriptionLifecycle-to-Preinscription" style="stroke:#181818;stroke-width:1.0;"/><polygon fill="#181818" points="283.645,191.5081,287.645,182.5081,283.645,186.5081,279.645,182.5081,283.645,191.5081" style="stroke:#181818;stroke-width:1.0;"/><text fill="#000000" font-family="sans-serif" font-size="13" lengthAdjust="spacing" textLength="79" x="293.145" y="154.3232">Pr&#233;inscription</text><text fill="#000000" font-family="sans-serif" font-size="13" lengthAdjust="spacing" textLength="96" x="284.645" y="170.6748">(Pre-registration)</text></g><!--link Preinscription to DossierSoumis--><g id="link_Preinscription_DossierSoumis"><path d="M283.645,241.9881 C283.645,262.3581 283.645,285.3381 283.645,305.6981 " fill="none" id="Preinscription-to-DossierSoumis" style="stroke:#181818;stroke-width:1.0;"/><polygon fill="#181818" points="283.645,311.6981,287.645,302.6981,283.645,306.6981,279.645,302.6981,283.645,311.6981" style="stroke:#181818;stroke-width:1.0;"/><text fill="#000000" font-family="sans-serif" font-size="13" lengthAdjust="spacing" textLength="80" x="284.645" y="274.3232">D&#233;p&#244;t dossier</text><text fill="#000000" font-family="sans-serif" font-size="13" lengthAdjust="spacing" textLength="69" x="290.145" y="290.6748">(Submit file)</text></g><!--link DossierSoumis to EnValidation--><g id="link_DossierSoumis_EnValidation"><path d="M283.645,361.9881 C283.645,382.3581 283.645,405.3381 283.645,425.6981 " fill="none" id="DossierSoumis-to-EnValidation" style="stroke:#181818;stroke-width:1.0;"/><polygon fill="#181818" points="283.645,431.6981,287.645,422.6981,283.645,426.6981,279.645,422.6981,283.645,431.6981" style="stroke:#181818;stroke-width:1.0;"/><text fill="#000000" font-family="sans-serif" font-size="13" lengthAdjust="spacing" textLength="127" x="284.645" y="394.3232">En cours de validation</text><text fill="#000000" font-family="sans-serif" font-size="13" lengthAdjust="spacing" textLength="81" x="307.645" y="410.6748">(Under review)</text></g><!--link EnValidation to Acceptee--><g id="link_EnValidation_Acceptee"><path d="M260.105,481.8781 C255.505,487.4581 251.065,493.5981 247.645,499.8281 C238.765,516.0281 234.2466,530.2447 230.6466,545.6947 " fill="none" id="EnValidation-to-Acceptee" style="stroke:#181818;stroke-width:1.0;"/><polygon fill="#181818" points="229.285,551.5381,235.223,543.6806,230.4197,546.6686,227.4317,541.8652,229.285,551.5381" style="stroke:#181818;stroke-width:1.0;"/><text fill="#000000" font-family="sans-serif" font-size="13" lengthAdjust="spacing" textLength="55" x="252.645" y="514.3232">Accept&#233;e</text><text fill="#000000" font-family="sans-serif" font-size="13" lengthAdjust="spacing" textLength="63" x="248.645" y="530.6748">(Accepted)</text></g><!--link EnValidation to Refusee--><g id="link_EnValidation_Refusee"><path d="M302.865,482.1881 C306.545,487.7481 310.065,493.7981 312.645,499.8281 C329.795,539.8481 336.758,584.4731 339.938,613.7931 " fill="none" id="EnValidation-to-Refusee" style="stroke:#181818;stroke-width:1.0;"/><polygon fill="#181818" points="340.585,619.7581,343.5912,610.3793,340.0459,614.7873,335.6379,611.2419,340.585,619.7581" style="stroke:#181818;stroke-width:1.0;"/><text fill="#000000" font-family="sans-serif" font-size="13" lengthAdjust="spacing" textLength="47" x="331.645" y="514.3232">Refus&#233;e</text><text fill="#000000" font-family="sans-serif" font-size="13" lengthAdjust="spacing" textLength="59" x="325.645" y="530.6748">(Rejected)</text></g><!--link Acceptee to Inscrit--><g id="link_Acceptee_Inscrit"><path d="M200.695,601.8581 C196.575,607.3481 192.895,613.4581 190.645,619.8281 C183.225,640.7781 181.355,649.6381 190.645,669.8281 C195.045,679.3981 198.1664,683.817 206.2364,690.367 " fill="none" id="Acceptee-to-Inscrit" style="stroke:#181818;stroke-width:1.0;"/><polygon fill="#181818" points="210.895,694.1481,206.4278,685.3706,207.0128,690.9972,201.3863,691.5821,210.895,694.1481" style="stroke:#181818;stroke-width:1.0;"/><text fill="#000000" font-family="sans-serif" font-size="13" lengthAdjust="spacing" textLength="93" x="197.145" y="642.3232">Inscription finale</text><text fill="#000000" font-family="sans-serif" font-size="13" lengthAdjust="spacing" textLength="104" x="191.645" y="658.6748">(Final registration)</text></g><!--link Refusee to *end*InscriptionLifecycle--><g id="link_Refusee_*end*InscriptionLifecycle"><path d="M331.675,670.0381 C317.495,701.3081 295.981,748.7729 286.331,770.0729 " fill="none" id="Refusee-to-*end*InscriptionLifecycle" style="stroke:#181818;stroke-width:1.0;"/><polygon fill="#181818" points="283.855,775.5381,291.2126,768.9909,285.9184,770.9837,283.9256,765.6895,283.855,775.5381" style="stroke:#181818;stroke-width:1.0;"/></g><!--link Inscrit to *end*InscriptionLifecycle--><g id="link_Inscrit_*end*InscriptionLifecycle"><path d="M253.185,737.8681 C260.535,750.8981 266.229,761.0212 271.589,770.5312 " fill="none" id="Inscrit-to-*end*InscriptionLifecycle" style="stroke:#181818;stroke-width:1.0;"/><polygon fill="#181818" points="274.535,775.7581,273.6006,765.9537,272.08,771.4023,266.6314,769.8817,274.535,775.7581" style="stroke:#181818;stroke-width:1.0;"/></g><!--SRC=[bL91Ri8m4Bpd5IikGAM8UwLMeW4af1PGQ7jfUmZ90biv3h8TgghgWxZt1_bOrmu90S41dqQxC-Frh0qPWJ2WQAMYD4KDIRlOcSXey250QHH2WZ3AL1ePoYG4cJGaSuHEC0gwdjThmzsbum6Vu3iMpcDBx3CDd_hFu-d4jIuAeTtpFCrJ8BJggz_b8oqnjdOjYFHXfheCFnxxljryWE_VmuFASXA2Pxw5G1MxlKadKEXWbxa7ZbNCyeKWHEQNI37R8RssvAfjgNqLhsdhk7jeoNjeoJN1idaap_kzDgpnP1w4uzbrSOsbZXLjpWNMQ5s8RAQG3YIR0-T6JSSEKto5Az96rIcUoApJ8DEQ0vndUKgQZGR5RbFy6KZAEXlDyqLA1fOaN5x70cinbA-He2JQZpAK46UvqYwTki56Bp911Gevig-kVSsHq2qhZd5ZocKvMEpGRgii9zrpcX2NkNOIXqf5Y9yOEuNTSELgwMMsXkcDbFbnCX9MEB80JdEhxgY-2DGsZK_p3m00]--></g></svg>